<?xml version="1.0" encoding="UTF-8" standalone="no"?>
<svg
   xmlns:dc="http://purl.org/dc/elements/1.1/"
   xmlns:cc="http://creativecommons.org/ns#"
   xmlns:rdf="http://www.w3.org/1999/02/22-rdf-syntax-ns#"
   xmlns:svg="http://www.w3.org/2000/svg"
   xmlns="http://www.w3.org/2000/svg"
   width="22.442871mm"
   height="54.735447mm"
   viewBox="0 0 22.442871 54.735447"
   version="1.1"
   id="svg395">
  <defs
     id="defs389" />
  <metadata
     id="metadata392">
    <rdf:RDF>
      <cc:Work
         rdf:about="">
        <dc:format>image/svg+xml</dc:format>
        <dc:type
           rdf:resource="http://purl.org/dc/dcmitype/StillImage" />
        <dc:title></dc:title>
      </cc:Work>
    </rdf:RDF>
  </metadata>
  <g
     id="layer1"
     transform="translate(-121.82618,-120.04299)">
    <path
       id="path5360"
       d="m 129.02624,140.55988 c -0.58841,-0.0464 -2.19879,-0.32517 -2.83365,-0.48002 -1.16133,-0.2942 -2.40009,-0.6968 -2.40009,-0.7897 0,-0.0619 0.71229,-2.95753 1.56393,-6.44153 0.85165,-3.484 1.54845,-6.37959 1.54845,-6.44153 0,-0.0464 -0.062,-0.0929 -0.15485,-0.0929 -0.15484,0 -0.18582,0.0929 -0.4026,1.02197 -0.0929,0.4026 -0.12387,0.44905 -0.2942,0.48002 -0.27872,0.031 -1.23876,-0.24775 -1.85813,-0.52647 -0.27872,-0.12388 -0.51099,-0.23227 -0.52647,-0.26324 -0.0774,-0.0619 2.64784,-3.85562 2.80268,-3.91756 0.0929,-0.031 0.61938,-0.15485 1.17682,-0.27872 l 0.991,-0.21678 0.17033,0.23226 c 0.2013,0.27872 0.68131,0.51099 1.08392,0.51099 0.41807,0 0.89809,-0.23227 1.11487,-0.55744 0.18581,-0.29421 0.0929,-0.29421 1.45554,0 1.33167,0.2942 1.26973,0.23226 2.66333,2.21428 0.68131,0.96003 1.23875,1.78071 1.23875,1.81167 0,0.18582 -1.8891,0.77423 -2.49299,0.77423 -0.1084,0 -0.17033,-0.15485 -0.30969,-0.75874 -0.1084,-0.52647 -0.2013,-0.75874 -0.27872,-0.75874 -0.062,0 -0.12388,0.0465 -0.15485,0.10839 -0.031,0.0774 2.83366,12.35659 3.05044,13.06887 0.0309,0.12388 -0.062,0.17033 -1.17682,0.55744 -1.81168,0.63487 -4.01047,0.8981 -5.977,0.74326 z"
       style="fill:#cccccc;fill-opacity:1;fill-rule:nonzero;stroke:none;stroke-width:0.193557" />
    <path
       id="path5362"
       d="m 134.32193,130.04594 c -0.26324,-1.08391 -0.48002,-2.01298 -0.49551,-2.04394 -0.0155,-0.0619 0.0155,-0.0774 0.17033,-0.0929 0.4955,-0.0619 0.92907,-0.13937 1.20779,-0.21679 l 0.30969,-0.0929 0.23226,0.66583 c 0.44905,1.31618 0.72777,2.2917 0.72777,2.60139 0,0.13936 -0.0309,0.17033 -0.17033,0.30969 -0.0774,0.0774 -0.26323,0.2013 -0.38711,0.27872 -0.21679,0.12387 -0.91358,0.48002 -1.08391,0.52647 -0.0464,0.0155 -0.13936,-0.32517 -0.51098,-1.93556 z"
       style="fill:#cccccc;fill-opacity:1;fill-rule:nonzero;stroke:none;stroke-width:0.193557" />
    <path
       id="path5364"
       d="m 124.82996,132.07441 c -0.72777,-0.29421 -1.30069,-0.66584 -1.37811,-0.86713 -0.062,-0.18582 0.13936,-0.94455 0.68131,-2.46203 0.18581,-0.51099 0.34065,-0.94455 0.35614,-0.96004 0,0 0.17033,0.0464 0.35614,0.1084 0.38711,0.12387 1.00649,0.26323 1.17682,0.26323 0.062,0 0.12388,0.0155 0.12388,0.0465 0,0.0774 -0.97552,3.99499 -0.99101,3.99499 -0.0155,0 -0.15484,-0.0465 -0.32517,-0.12388 z"
       style="fill:#cccccc;fill-opacity:1;fill-rule:nonzero;stroke:none;stroke-width:0.193557" />
    <path
       id="path5366"
       d="m 129.58368,122.98504 c -0.30969,-0.0774 -0.51098,-0.24775 -0.61938,-0.51099 -0.0464,-0.12388 -0.062,-0.34066 -0.062,-1.23876 v -1.09939 h 1.00649 0.991 v 0.23227 c 0,0.12387 -0.0155,0.21678 -0.0309,0.21678 -0.031,0 -0.0465,0.30969 -0.031,0.96003 v 0.94455 l -0.10839,0.15485 c -0.21678,0.30969 -0.72776,0.46453 -1.14585,0.34066 z"
       style="fill:#cccccc;fill-opacity:1;fill-rule:nonzero;stroke:none;stroke-width:0.193557" />
    <path
       id="path5368"
       d="m 126.90488,150.03636 2.92656,18.89102 c -7.6648,-3.18979 -8.62484,0.2013 -7.44802,5.71376 l 10.23521,-1.7807 -2.77171,-22.93247"
       style="fill:none;stroke:#333333;stroke-width:0.27872px;stroke-linecap:butt;stroke-linejoin:bevel;stroke-miterlimit:4;stroke-dasharray:none;stroke-opacity:1" />
    <path
       id="path5370"
       d="m 135.12712,149.83506 1.71877,19.0149 c 6.89058,-1.70329 8.1603,0.97552 6.79767,5.72925 l -8.91905,-1.64135 -2.58589,-23.22667"
       style="fill:none;stroke:#333333;stroke-width:0.27872px;stroke-linecap:butt;stroke-linejoin:bevel;stroke-miterlimit:4;stroke-dasharray:none;stroke-opacity:1" />
    <path
       id="path5372"
       d="m 128.82495,122.41211 c 0,0 -2.43106,0.44905 -2.63236,0.63486 m -1.7962,4.53695 c -0.63486,1.67231 -1.16133,3.23624 -1.11488,3.5769 0,0.4026 0.96004,0.86713 1.82717,1.19231"
       style="fill:none;stroke:#333333;stroke-width:0.27872px;stroke-linecap:butt;stroke-linejoin:bevel;stroke-miterlimit:4;stroke-dasharray:none;stroke-opacity:1" />
    <path
       id="path5374"
       d="m 130.9618,122.35017 c 0,0 2.64784,0.35615 3.00398,0.8052 m 1.64135,4.22725 c 0.6039,1.70329 1.14585,3.43754 1.00649,3.6853 -0.23227,0.38711 -1.05294,0.7897 -1.78071,1.08391"
       style="fill:none;stroke:#333333;stroke-width:0.27872px;stroke-linecap:butt;stroke-linejoin:bevel;stroke-miterlimit:4;stroke-dasharray:none;stroke-opacity:1" />
    <path
       id="path5376"
       d="m 128.7785,122.41211 c 0.26323,1.03746 2.01297,1.05295 2.26072,-0.0619"
       style="fill:none;stroke:#333333;stroke-width:0.27872px;stroke-linecap:butt;stroke-linejoin:bevel;stroke-miterlimit:4;stroke-dasharray:none;stroke-opacity:1" />
    <path
       id="path5378"
       d="m 128.73204,122.44308 v -2.40009 m 2.24524,0.12388 v 2.19879"
       style="fill:none;stroke:#333333;stroke-width:0.27872px;stroke-linecap:butt;stroke-linejoin:bevel;stroke-miterlimit:4;stroke-dasharray:none;stroke-opacity:1" />
    <path
       id="path5380"
       d="m 126.20808,123.016 -2.83366,4.05693 c 0,0 1.28521,0.83616 2.92656,0.96003"
       style="fill:none;stroke:#333333;stroke-width:0.27872px;stroke-linecap:butt;stroke-linejoin:bevel;stroke-miterlimit:4;stroke-dasharray:none;stroke-opacity:1" />
    <path
       id="path5382"
       d="m 133.9503,123.07794 2.70977,3.82466 c 0,0 -1.06842,0.77422 -3.00398,0.88261"
       style="fill:none;stroke:#333333;stroke-width:0.27872px;stroke-linecap:butt;stroke-linejoin:bevel;stroke-miterlimit:4;stroke-dasharray:none;stroke-opacity:1" />
    <path
       id="path5384"
       d="m 126.76551,126.32968 -3.20528,13.1308 c 4.55243,1.64136 8.62484,1.87362 12.83661,0 l -3.17432,-13.3321"
       style="fill:none;stroke:#333333;stroke-width:0.27872px;stroke-linecap:butt;stroke-linejoin:bevel;stroke-miterlimit:4;stroke-dasharray:none;stroke-opacity:1" />
    <path
       id="path5386"
       d="m 135.28196,139.90953 1.73426,9.56939 c -1.84266,0.51099 -3.7937,0.83616 -5.71376,-0.0774 l -1.03746,-7.63383 0.4955,7.63383 c -2.18331,1.0994 -4.13435,0.88261 -6.2712,0.031 l 0.32517,-9.56939"
       style="fill:none;stroke:#333333;stroke-width:0.27872px;stroke-linecap:butt;stroke-linejoin:bevel;stroke-miterlimit:4;stroke-dasharray:none;stroke-opacity:1" />
    <path
       id="path5388"
       d="m 129.35142,165.96986 c 0.74325,0.32517 1.50199,0.52647 2.40009,0"
       style="fill:none;stroke:#333333;stroke-width:0.27872px;stroke-linecap:butt;stroke-linejoin:bevel;stroke-miterlimit:4;stroke-dasharray:none;stroke-opacity:1" />
    <path
       id="path5390"
       d="m 133.84191,165.70662 c 0.82067,0.32517 1.67232,0.52647 2.66332,0"
       style="fill:none;stroke:#333333;stroke-width:0.27872px;stroke-linecap:butt;stroke-linejoin:bevel;stroke-miterlimit:4;stroke-dasharray:none;stroke-opacity:1" />
    <path
       id="path5392"
       d="m 129.70756,168.88093 2.50848,0.68132"
       style="fill:none;stroke:#333333;stroke-width:0.27872px;stroke-linecap:butt;stroke-linejoin:bevel;stroke-miterlimit:4;stroke-dasharray:none;stroke-opacity:1" />
    <path
       id="path5394"
       d="m 136.96976,168.84996 -2.5859,0.68131"
       style="fill:none;stroke:#333333;stroke-width:0.27872px;stroke-linecap:butt;stroke-linejoin:bevel;stroke-miterlimit:4;stroke-dasharray:none;stroke-opacity:1" />
    <path
       id="path5396"
       d="m 135.85488,166.74407 0.4026,2.29171"
       style="fill:none;stroke:#333333;stroke-width:0.27872px;stroke-linecap:butt;stroke-linejoin:bevel;stroke-miterlimit:4;stroke-dasharray:none;stroke-opacity:1" />
    <path
       id="path5398"
       d="m 135.18905,169.32998 -0.35614,-2.47751"
       style="fill:none;stroke:#333333;stroke-width:0.27872px;stroke-linecap:butt;stroke-linejoin:bevel;stroke-miterlimit:4;stroke-dasharray:none;stroke-opacity:1" />
    <path
       id="path5400"
       d="m 131.34891,167.13118 0.24775,2.24525"
       style="fill:none;stroke:#333333;stroke-width:0.27872px;stroke-linecap:butt;stroke-linejoin:bevel;stroke-miterlimit:4;stroke-dasharray:none;stroke-opacity:1" />
    <path
       id="path5402"
       d="m 130.29596,167.1157 0.18582,1.98201"
       style="fill:none;stroke:#333333;stroke-width:0.27872px;stroke-linecap:butt;stroke-linejoin:bevel;stroke-miterlimit:4;stroke-dasharray:none;stroke-opacity:1" />
    <path
       id="path5404"
       d="m 127.12166,149.95894 c -0.66583,-0.0774 -1.22328,-0.2013 -1.96653,-0.44905 l -0.51098,-0.17033 v -0.21678 c 0.0155,-0.10839 0.0774,-2.07492 0.15484,-4.33565 0.0774,-2.27621 0.13936,-4.25822 0.15485,-4.39758 0.0155,-0.26323 0.0309,-0.27872 0.0929,-0.26323 0.0465,0 0.35615,0.0774 0.68131,0.17032 1.61039,0.43357 3.03496,0.61938 4.56791,0.61938 1.67233,0 2.95754,-0.18581 4.5834,-0.6968 l 0.2942,-0.0929 0.0155,0.10839 c 0.0155,0.0774 0.38711,2.12137 0.82068,4.55243 0.43357,2.43106 0.80519,4.45952 0.82067,4.50597 0.0155,0.0774 -0.0155,0.0929 -0.46452,0.2013 -1.76524,0.43356 -3.15883,0.43356 -4.41308,0 -0.26323,-0.0774 -0.44904,-0.15484 -0.51098,-0.2013 0,0 -1.02197,-7.47899 -1.02197,-7.52544 0,-0.0464 -0.2013,-0.031 -0.26324,0 -0.0465,0.031 0,0.74326 0.2013,3.77821 0.13936,2.04394 0.23227,3.74723 0.23227,3.76272 -0.0774,0.10839 -1.19231,0.48001 -1.74975,0.5884 -0.32517,0.0619 -1.44005,0.1084 -1.71877,0.0619 z"
       style="fill:#cccccc;fill-opacity:1;fill-rule:nonzero;stroke:none;stroke-width:0.193557" />
    <path
       id="path5406"
       d="m 134.81742,165.84597 c -0.10838,-0.0155 -0.30969,-0.0774 -0.46453,-0.12387 l -0.27872,-0.0929 -0.86713,-7.69577 c -0.46453,-4.22725 -0.86713,-7.77319 -0.86713,-7.85061 l -0.0309,-0.15484 0.18581,0.0465 c 0.49551,0.12387 1.5949,0.18581 2.21428,0.10839 l 0.27872,-0.0155 0.0155,0.13936 c 0.0155,0.0774 0.34066,3.57691 0.71228,7.7577 0.57293,6.37959 0.68132,7.63384 0.63487,7.64932 -0.031,0.031 -0.18582,0.0774 -0.35615,0.13936 -0.32517,0.10839 -0.86712,0.13936 -1.17682,0.0929 z"
       style="fill:#cccccc;fill-opacity:1;fill-rule:nonzero;stroke:none;stroke-width:0.193557" />
    <path
       id="path5408"
       d="m 130.17209,166.09373 c -0.27871,-0.062 -0.66583,-0.2013 -0.66583,-0.24776 0,-0.0464 -2.3846,-15.36056 -2.40009,-15.48444 l -0.0309,-0.0929 0.55743,0.0155 c 0.6039,0.0155 1.19231,-0.0464 1.73426,-0.20129 l 0.32518,-0.0774 0.0155,0.10839 c 0.0155,0.0619 0.44905,3.59239 0.94454,7.81964 0.51099,4.24274 0.94455,7.75771 0.96004,7.81965 0.0155,0.10839 0,0.12387 -0.2013,0.21678 -0.4026,0.17033 -0.82067,0.21678 -1.23876,0.12387 z"
       style="fill:#cccccc;fill-opacity:1;fill-rule:nonzero;stroke:none;stroke-width:0.193557" />
    <path
       id="path5410"
       d="m 134.29095,167.68863 c -0.0929,-0.91358 -0.17033,-1.67232 -0.15484,-1.67232 0,-0.0155 0.15484,0.0155 0.30969,0.0464 0.61938,0.17033 1.26972,0.13936 1.79619,-0.0774 0.1084,-0.0309 0.18582,-0.062 0.18582,-0.062 0,0.0155 0.062,0.65034 0.13936,1.40908 0.062,0.77423 0.10839,1.40908 0.0929,1.42457 -0.0155,0.0155 -0.0774,0.0464 -0.15484,0.062 l -0.13936,0.0155 -0.12388,-0.74325 c -0.062,-0.41808 -0.15484,-0.8981 -0.18581,-1.06843 l -0.0464,-0.30969 -0.13936,0.0155 c -0.0774,0.0155 -0.13936,0.0309 -0.15485,0.0464 0,0 0.30969,1.90459 0.35614,2.07492 0.0155,0.0774 -0.0155,0.0929 -0.34065,0.17033 -0.18582,0.0464 -0.35614,0.0929 -0.38711,0.10839 -0.0155,0 -0.0929,-0.44905 -0.2013,-1.14586 l -0.17033,-1.16132 -0.12387,0.0155 c -0.0774,0.0155 -0.13936,0.0309 -0.15485,0.0464 0,0 0.062,0.54195 0.15485,1.17682 l 0.17032,1.14585 -0.15484,0.0465 c -0.0929,0.0155 -0.2013,0.0464 -0.26324,0.0774 -0.062,0.0155 -0.10839,0.0309 -0.10839,0.0309 -0.0155,0 -0.0929,-0.74325 -0.2013,-1.67232 z"
       style="fill:#cccccc;fill-opacity:1;fill-rule:nonzero;stroke:none;stroke-width:0.193557" />
    <path
       id="path5412"
       d="m 131.87538,169.31449 c -0.062,-0.0155 -0.12387,-0.0464 -0.12387,-0.0464 0,0 -0.062,-0.48002 -0.12388,-1.06843 -0.0774,-0.57291 -0.13936,-1.06842 -0.15484,-1.06842 0,-0.0155 -0.0774,-0.0155 -0.13936,-0.0155 -0.15485,0.0309 -0.15485,-0.0464 -0.0155,1.13036 0.062,0.4955 0.10839,0.91358 0.0929,0.92906 0,0 -0.1858,-0.0464 -0.40259,-0.10838 l -0.38711,-0.1084 -0.0774,-0.86712 c -0.0465,-0.48002 -0.0929,-0.8981 -0.0929,-0.92907 0,-0.0464 -0.0309,-0.0774 -0.10839,-0.0774 -0.2013,0.0155 -0.2013,0 -0.12388,0.91359 0.0465,0.46453 0.0774,0.85164 0.062,0.85164 -0.0155,0.0309 -0.32518,-0.062 -0.32518,-0.0929 0,-0.0155 -0.0774,-0.57293 -0.18582,-1.23875 -0.10838,-0.66583 -0.18581,-1.22328 -0.18581,-1.25424 0,-0.0155 0.12388,0 0.29421,0.062 0.54196,0.17032 1.13036,0.15484 1.62586,-0.062 0.0774,-0.0464 0.15485,-0.062 0.15485,-0.0464 0,0.0309 0.34066,2.75623 0.37162,2.9885 0.0155,0.17032 0.0155,0.17032 -0.15484,0.10838 z"
       style="fill:#cccccc;fill-opacity:1;fill-rule:nonzero;stroke:none;stroke-width:0.193557" />
    <path
       id="path5414"
       d="m 122.47633,174.26952 c -0.0774,-0.30969 -0.23227,-1.22328 -0.27873,-1.65684 -0.0774,-0.60389 -0.062,-2.05943 0.0155,-2.46202 0.13936,-0.71229 0.38711,-1.20779 0.75873,-1.57942 0.52648,-0.54196 1.23876,-0.75874 2.30719,-0.71229 1.08391,0.0464 2.24525,0.32518 3.80918,0.92907 0.41807,0.15485 1.09939,0.37163 1.81167,0.57293 0.63486,0.17032 1.16133,0.32517 1.17682,0.32517 0,0 0.32517,2.64784 0.35614,2.91107 v 0.15485 l -0.48002,0.0774 c -1.05294,0.17033 -9.27518,1.61039 -9.3526,1.62587 -0.0774,0.0155 -0.0929,-0.0155 -0.12387,-0.18581 z"
       style="fill:#cccccc;fill-opacity:1;fill-rule:nonzero;stroke:none;stroke-width:0.193557" />
    <path
       id="path5416"
       d="m 139.15307,173.60369 c -2.33815,-0.43357 -4.25822,-0.8052 -4.27371,-0.82068 0,0 -0.0929,-0.71229 -0.18581,-1.56393 l -0.17033,-1.56393 0.18582,-0.0464 c 0.41808,-0.12388 2.36911,-0.63486 2.70977,-0.72777 1.05294,-0.26323 2.41557,-0.41808 3.31367,-0.37163 1.17682,0.0464 1.87362,0.29421 2.44655,0.86714 0.35614,0.35614 0.52647,0.66583 0.68131,1.1923 0.0774,0.2942 0.0774,0.40259 0.0774,1.14584 0,0.88262 -0.0309,1.11489 -0.26323,2.12137 -0.1084,0.44905 -0.15485,0.55745 -0.2013,0.55745 -0.0309,0 -1.98201,-0.35615 -4.32016,-0.78971 z"
       style="fill:#cccccc;fill-opacity:1;fill-rule:nonzero;stroke:none;stroke-width:0.193557" />
  </g>
</svg>
