<?xml version="1.0" encoding="UTF-8" standalone="no"?>
<svg
   xmlns:dc="http://purl.org/dc/elements/1.1/"
   xmlns:cc="http://creativecommons.org/ns#"
   xmlns:rdf="http://www.w3.org/1999/02/22-rdf-syntax-ns#"
   xmlns:svg="http://www.w3.org/2000/svg"
   xmlns="http://www.w3.org/2000/svg"
   xmlns:sodipodi="http://sodipodi.sourceforge.net/DTD/sodipodi-0.dtd"
   xmlns:inkscape="http://www.inkscape.org/namespaces/inkscape"
   width="210mm"
   height="297mm"
   viewBox="0 0 210 297"
   version="1.1"
   id="svg594"
   inkscape:version="1.0.2 (e86c870879, 2021-01-15, custom)"
   sodipodi:docname="body_woman.svg">
  <defs
     id="defs588" />
  <sodipodi:namedview
     id="base"
     pagecolor="#ffffff"
     bordercolor="#666666"
     borderopacity="1.0"
     inkscape:pageopacity="0.0"
     inkscape:pageshadow="2"
     inkscape:zoom="0.35"
     inkscape:cx="400"
     inkscape:cy="560"
     inkscape:document-units="mm"
     inkscape:current-layer="layer1"
     inkscape:document-rotation="0"
     showgrid="false"
     inkscape:window-width="1431"
     inkscape:window-height="1208"
     inkscape:window-x="64"
     inkscape:window-y="1350"
     inkscape:window-maximized="0" />
  <metadata
     id="metadata591">
    <rdf:RDF>
      <cc:Work
         rdf:about="">
        <dc:format>image/svg+xml</dc:format>
        <dc:type
           rdf:resource="http://purl.org/dc/dcmitype/StillImage" />
        <dc:title></dc:title>
      </cc:Work>
    </rdf:RDF>
  </metadata>
  <g
     inkscape:label="Layer 1"
     inkscape:groupmode="layer"
     id="layer1">
    <g
       id="g4438"
       transform="translate(-105.86092,-461.18849)">
      <path
         transform="scale(0.26458333)"
         inkscape:connector-curvature="0"
         id="path4412"
         d="m 593.05053,2286.8451 c -0.67796,-1.1119 -1.2337,-2.915 -1.23498,-4.0067 -0.002,-2.0543 -1.07324,-3.3452 -1.79978,-2.1696 -0.47226,0.7641 -5.57857,3.1872 -6.76013,3.2078 -0.43001,0.01 0.87984,-1.9654 2.91079,-4.3842 2.03094,-2.4188 4.81421,-6.6877 6.18504,-9.4864 2.98255,-6.0892 4.18498,-12.9621 6.65152,-38.0191 2.68779,-27.3046 5.44054,-39.2128 11.53605,-49.904 l 1.83072,-3.211 -1.86933,-11.0964 c -7.80412,-46.3253 -9.07096,-73.2287 -4.32091,-91.7618 0.46455,-1.8125 1.18464,-2.6205 3.4775,-3.902 4.44963,-2.487 5.10148,-2.4915 9.12737,-0.063 4.1197,2.4848 5.84999,2.4499 7.90236,-0.1592 0.96571,-1.2277 1.2194,-2.3386 1.07877,-4.724 -0.18127,-3.0748 -0.23398,-3.1484 -3.73767,-5.2237 -1.95459,-1.1577 -4.68826,-2.257 -6.07482,-2.443 l -2.52102,-0.3381 2.19566,-2.1324 c 1.20761,-1.1728 3.75154,-2.8447 5.65319,-3.7153 1.90164,-0.8706 3.59179,-1.9328 3.75588,-2.3604 0.42248,-1.101 -0.80949,-12.4615 -1.97427,-18.2056 -2.38478,-11.7605 -6.7642,-24.0113 -13.4603,-37.6532 l -4.93789,-10.06 1.28331,-2.2833 c 1.52458,-2.7126 1.76302,-4.4403 0.41745,-3.0248 -0.47623,0.501 -5.80742,8.838 -11.8471,18.5267 l -10.98124,17.6158 8.78161,23.7511 c 4.82988,13.0632 9.02265,23.9984 9.31725,24.3005 0.30789,0.3158 2.29602,-0.1553 4.6758,-1.108 6.78237,-2.7152 8.95636,-2.7678 13.75357,-0.3329 3.75196,1.9044 5.22743,3.2544 4.42923,4.0526 -0.16945,0.1695 -1.67365,-0.5287 -3.34266,-1.5516 -3.197,-1.9592 -6.46033,-3.0437 -6.44941,-2.1434 0.004,0.2937 1.61314,1.3013 3.57684,2.2392 4.72315,2.2557 6.80282,4.02 5.85539,4.9674 -0.53649,0.5365 -1.06251,0.3941 -2.12127,-0.5741 -2.42887,-2.2213 -8.29262,-4.8597 -8.83825,-3.9769 -0.1764,0.2855 1.44363,1.3876 3.60008,2.4492 2.15645,1.0616 4.4337,2.4969 5.06057,3.1896 1.11111,1.2278 1.10582,1.2594 -0.21019,1.2594 -0.74248,0 -2.83797,-0.8397 -4.65665,-1.8661 -1.81867,-1.0264 -3.90699,-1.8662 -4.6407,-1.8662 -0.73371,0 -3.95352,1.3996 -7.15514,3.1103 -3.20161,1.7106 -5.95213,3.1103 -6.11226,3.1103 -0.16013,0 -6.96357,-13.4313 -15.11874,-29.8473 l -14.82759,-29.8472 3.52371,-6.2836 c 3.27049,-5.8321 12.55443,-21.0339 24.33274,-39.8433 l 4.91373,-7.8469 4.00504,-0.738 c 2.20278,-0.4058 5.78513,-0.9041 7.96078,-1.1073 l 3.95573,-0.3694 v 1.9879 c 0,1.6803 0.3337,2.1273 2.15723,2.8892 2.7654,1.1554 4.29134,1.1371 6.64492,-0.08 1.66615,-0.8616 1.86679,-1.2462 1.64428,-3.1522 l -0.25343,-2.1708 3.14579,0.3781 c 1.73018,0.2079 5.05356,0.675 7.38529,1.038 l 4.23949,0.6599 12.24508,10.108 c 6.7348,5.5595 15.88413,13.3164 20.33186,17.2377 l 8.08677,7.1295 -0.0781,3.0718 c -0.0429,1.6895 -1.76891,9.93 -3.83549,18.3123 -4.07583,16.5319 -11.88881,46.1796 -12.27007,46.5609 -0.12981,0.1298 -1.52355,-0.3873 -3.0972,-1.1491 -2.69165,-1.303 -2.92981,-1.323 -4.01902,-0.3373 -0.6368,0.5763 -1.49728,1.8674 -1.91219,2.869 -0.76884,1.8562 -1.84755,2.459 -1.84755,1.0326 0,-1.0765 3.01068,-5.4319 3.75479,-5.4319 0.32979,0 0.59963,-0.28 0.59963,-0.6221 0,-1.5393 -2.06645,-0.3743 -3.86685,2.1799 -1.21941,1.73 -2.19666,2.5804 -2.5543,2.2228 -0.74551,-0.7455 1.69569,-4.753 3.69225,-6.0612 0.81663,-0.535 1.48478,-1.2206 1.48478,-1.5233 0,-1.2189 -1.56427,-0.4165 -3.82868,1.9639 -2.6797,2.8169 -3.01722,2.6875 -1.09641,-0.4204 1.58512,-2.5648 3.26043,-3.0428 7.48704,-2.1364 1.78875,0.3837 3.45247,0.4801 3.69715,0.2144 0.40142,-0.4359 6.33664,-55.0159 6.00892,-55.2577 -3.00236,-2.2158 -21.72879,-19.7745 -22.77482,-21.3548 -2.11492,-3.1949 -3.89852,-5.0623 -4.48762,-4.6982 -0.2784,0.1721 0.56546,1.7288 1.87527,3.4593 2.31101,3.0534 3.80256,6.6153 3.7746,9.0139 -0.0272,2.3324 -2.51001,6.589 -5.94192,10.187 l -3.50403,3.6736 2.14489,3.6086 c 8.37247,14.0862 14.85234,29.3283 19.10207,44.9323 0.69236,2.5422 1.18483,4.6962 1.09438,4.7866 -0.0904,0.091 -1.25568,-0.082 -2.58942,-0.3825 -3.20536,-0.7229 -5.41494,0.4349 -7.44682,3.9021 -2.17485,3.7111 -1.20575,7.0284 2.73293,9.355 l 1.89936,1.122 1.08207,-1.9518 c 2.19256,-3.9548 2.28448,-4.0219 4.34464,-3.1685 2.12826,0.8815 2.14356,0.9569 3.29506,16.2106 1.1224,14.868 -1.1315,35.7719 -6.945,64.4119 -3.11311,15.3365 -7.94812,33.815 -10.53323,40.2559 -6.10597,15.2133 -16.03435,51.0962 -20.14612,72.8116 l -2.12315,11.213 3.3108,4.1494 c 1.82095,2.2823 5.08977,5.9307 7.26405,8.1076 3.07998,3.0838 3.60971,3.8617 2.39808,3.5215 -4.6154,-1.2958 -4.97647,-1.2703 -4.97647,0.3523 0,0.845 -0.558,2.0414 -1.23998,2.6586 -1.2128,1.0976 -1.36106,1.0055 -6.76034,-4.1994 -3.0362,-2.9269 -6.46716,-5.807 -7.62437,-6.4001 -1.1572,-0.5931 -2.30967,-1.3893 -2.56103,-1.7692 -0.74689,-1.1289 -0.52279,-4.8591 0.46171,-7.6852 2.84655,-8.1712 5.43146,-25.9772 6.84112,-47.1248 1.42586,-21.3904 2.81705,-29.7335 6.23369,-37.3838 2.03993,-4.5676 9.02465,-35.3578 10.7923,-47.5747 1.07862,-7.4548 2.53695,-25.0561 2.56017,-30.9001 0.003,-0.7698 -0.37166,-1.3996 -0.83271,-1.3996 -0.65463,0 -0.92071,2.2825 -1.21464,10.4195 -0.57788,15.9979 -1.99671,25.3618 -7.61119,50.2313 -2.44368,10.8244 -4.06856,16.5376 -5.90947,20.778 -1.39648,3.2168 -3.63241,9.9526 -4.96874,14.9684 -1.39639,5.2414 -4.82387,15.114 -8.05937,23.2144 -6.10512,15.2849 -9.12802,24.9638 -11.59244,37.1175 -1.18524,5.8452 -1.41411,8.077 -0.91126,8.8858 0.36933,0.5941 0.67151,2.3127 0.67151,3.8192 0,2.2406 -0.38918,3.176 -2.13886,5.1404 -1.17638,1.3208 -3.29542,4.5709 -4.70898,7.2224 -1.41356,2.6515 -2.83457,4.821 -3.15779,4.821 -0.32322,0 -1.14236,-0.9098 -1.82032,-2.0217 z"
         style="opacity:1;vector-effect:none;fill:#e6e6e6;fill-opacity:1;stroke:none;stroke-width:0.781038;stroke-linecap:butt;stroke-linejoin:bevel;stroke-miterlimit:4;stroke-dasharray:none;stroke-dashoffset:0;stroke-opacity:1;paint-order:normal" />
      <path
         transform="scale(0.26458333)"
         inkscape:connector-curvature="0"
         id="path4402"
         d="m 640.81589,2289.2287 c -1.27285,-0.1007 -2.40162,-0.2349 -4.23672,-0.5035 l -1.21268,-0.1775 0.89072,-0.8907 c 1.04258,-1.0426 1.67071,-2.1614 1.77369,-3.1592 l 0.0629,-0.609 0.64463,0.2604 c 0.97987,0.3958 3.77673,1.1606 5.9263,1.6205 1.05842,0.2265 1.97909,0.4277 2.04594,0.4473 0.23319,0.068 1.25164,1.5421 1.32258,1.9141 0.086,0.4513 -0.0764,0.6031 -0.89429,0.8358 -1.29583,0.3688 -3.70804,0.4686 -6.32303,0.2618 z"
         style="opacity:1;vector-effect:none;fill:#cccccc;fill-opacity:1;stroke:none;stroke-width:0.138069;stroke-linecap:butt;stroke-linejoin:bevel;stroke-miterlimit:4;stroke-dasharray:none;stroke-dashoffset:0;stroke-opacity:1;paint-order:normal" />
      <path
         transform="scale(0.26458333)"
         inkscape:connector-curvature="0"
         id="path4404"
         d="m 580.34028,2290.3921 c -1.07546,-0.1946 -1.64142,-0.4544 -1.72626,-0.7924 -0.12356,-0.4923 0.0455,-1.8376 0.35267,-2.8058 0.26597,-0.8384 0.33743,-0.9622 0.55555,-0.9622 0.4642,0 3.59034,-0.6765 5.10717,-1.1051 2.1932,-0.6199 4.08119,-1.4152 5.22904,-2.2027 l 0.45149,-0.3098 0.0658,0.8466 c 0.11673,1.5009 0.87082,3.6012 1.70538,4.7498 0.15402,0.212 0.62557,0.7413 1.04786,1.1761 0.89963,0.9263 1.03599,0.8183 -1.3578,1.0759 -4.7178,0.5077 -9.65929,0.6502 -11.43094,0.3296 z"
         style="opacity:1;vector-effect:none;fill:#cccccc;fill-opacity:1;stroke:none;stroke-width:0.138069;stroke-linecap:butt;stroke-linejoin:bevel;stroke-miterlimit:4;stroke-dasharray:none;stroke-dashoffset:0;stroke-opacity:1;paint-order:normal" />
      <path
         inkscape:connector-curvature="0"
         id="path3909"
         d="m 165.12729,519.44083 c -0.16558,-0.0364 -0.37842,-0.11496 -0.58672,-0.21664 l -0.15397,-0.0752 v -1.58948 -1.58952 l 0.35926,-0.0148 c 0.19759,-0.008 0.60304,-0.0151 0.90099,-0.0151 l 0.54174,-8e-5 2.1e-4,0.0513 c 1.2e-4,0.0282 0.0461,0.7493 0.10213,1.60239 l 0.10192,1.5511 -0.0508,0.0425 c -0.0919,0.0769 -0.3609,0.19941 -0.53608,0.24421 -0.19907,0.0509 -0.47207,0.0546 -0.67868,0.009 z"
         style="opacity:1;vector-effect:none;fill:#e6e6e6;fill-opacity:1;stroke:none;stroke-width:0.02281;stroke-linecap:butt;stroke-linejoin:bevel;stroke-miterlimit:4;stroke-dasharray:none;stroke-dashoffset:0;stroke-opacity:1;paint-order:normal" />
      <path
         inkscape:connector-curvature="0"
         id="path3916"
         d="m 161.69549,545.13759 c 0.10537,-0.13587 0.29619,-0.40347 0.41487,-0.5818 l 0.14655,-0.22021 0.17804,-0.0109 c 0.10167,-0.006 0.22648,-0.003 0.29095,0.006 0.0621,0.009 0.11835,0.0169 0.125,0.0169 0.0371,0 -0.004,0.0541 -0.12616,0.16161 -0.11677,0.10313 -0.25448,0.24966 -0.41325,0.43971 -0.0314,0.0376 -0.0786,0.0556 -0.30334,0.11554 -0.14637,0.0391 -0.28064,0.0766 -0.29838,0.0835 -0.0265,0.0103 -0.029,0.008 -0.0143,-0.0106 z"
         style="opacity:1;vector-effect:none;fill:#e6e6e6;fill-opacity:1;stroke:none;stroke-width:0.0161291;stroke-linecap:butt;stroke-linejoin:bevel;stroke-miterlimit:4;stroke-dasharray:none;stroke-dashoffset:0;stroke-opacity:1;paint-order:normal" />
      <path
         sodipodi:nodetypes="ccccc"
         inkscape:connector-curvature="0"
         id="path3883"
         d="m 164.22961,515.80364 v 3.43611 c 1.07398,0.63209 1.74952,0.41961 2.32737,0 l -0.22523,-3.47228 z"
         style="opacity:1;vector-effect:none;fill:none;fill-opacity:1;stroke:#333333;stroke-width:0.302225;stroke-linecap:butt;stroke-linejoin:bevel;stroke-miterlimit:4;stroke-dasharray:none;stroke-dashoffset:0;stroke-opacity:1" />
      <path
         sodipodi:nodetypes="cccccccscc"
         style="opacity:1;vector-effect:none;fill:none;fill-opacity:1;stroke:#333333;stroke-width:0.264583;stroke-linecap:butt;stroke-linejoin:bevel;stroke-miterlimit:4;stroke-dasharray:none;stroke-dashoffset:0;stroke-opacity:1"
         d="m 160.23091,525.22129 c 0.83726,1.41077 5.4987,9.61864 5.4987,17.48745 -1.09544,0.36101 -2.01986,0.90406 -2.7937,1.60848 m -2.54062,4.20759 c -2.06397,6.43434 -0.46231,16.97738 1.42286,27.97829 -4.08966,6.38184 -3.0152,15.80571 -4.71023,22.84063 m 2.78283,0.52463 c 1.69673,-10.27549 4.44202,-12.44321 5.84772,-19.05291 0.35332,-1.66138 1.15159,-3.16804 1.77084,-4.66953 1.11741,-5.34261 3.01224,-11.27443 2.98096,-19.85256"
         id="path3863"
         inkscape:connector-curvature="0" />
      <path
         sodipodi:nodetypes="cccccssccc"
         inkscape:connector-curvature="0"
         id="path3865"
         d="m 171.07073,522.4284 c 3.26644,3.49744 0.92711,5.12628 -0.7742,6.9678 3.5196,5.81272 5.15342,10.60527 5.95504,14.4816 m 0.36688,2.06295 c 0.25929,1.73457 0.36569,3.2538 0.44315,4.56991 0.46924,5.0509 -1.45346,16.59557 -4.11829,25.93663 -0.25358,0.8889 -0.6421,1.47361 -0.9354,2.35636 -2.38189,7.16884 -4.1227,13.12255 -5.47682,21.25707 m -2.90598,-0.47715 c 2.56732,-10.29552 1.05177,-14.80858 2.97179,-21.29351"
         style="opacity:1;vector-effect:none;fill:none;fill-opacity:1;stroke:#333333;stroke-width:0.264583;stroke-linecap:butt;stroke-linejoin:bevel;stroke-miterlimit:4;stroke-dasharray:none;stroke-dashoffset:0;stroke-opacity:1" />
      <path
         sodipodi:nodetypes="cccccccccc"
         inkscape:connector-curvature="0"
         id="path3867"
         d="m 161.13518,523.78325 -6.00004,9.61297 4.70971,12.70976 c 1.12627,-0.66603 2.20556,-0.95616 3.27145,-1.13915 1.00364,0.0228 2.86545,1.35809 2.86545,1.35809 0.17073,1.4235 -0.24085,2.17275 -1.22582,2.25806 -0.11398,0.15197 -1.58273,-1.12584 -2.20138,-1.12214 -0.96338,0.15936 -3.63656,2.29299 -3.79035,1.46773 0,0 -7.82264,-15.30655 -7.75812,-15.79042 -0.16129,-0.54839 8.70974,-14.4517 8.70974,-14.4517"
         style="opacity:1;vector-effect:none;fill:none;fill-opacity:1;stroke:#333333;stroke-width:0.264583;stroke-linecap:butt;stroke-linejoin:bevel;stroke-miterlimit:4;stroke-dasharray:none;stroke-dashoffset:0;stroke-opacity:1" />
      <path
         inkscape:connector-curvature="0"
         id="path3869"
         d="m 165.63888,548.2036 c 0,0 -1.48265,-1.41422 -2.82845,-1.61951"
         style="opacity:1;vector-effect:none;fill:none;fill-opacity:1;stroke:#333333;stroke-width:0.264583;stroke-linecap:butt;stroke-linejoin:bevel;stroke-miterlimit:4;stroke-dasharray:none;stroke-dashoffset:0;stroke-opacity:1" />
      <path
         inkscape:connector-curvature="0"
         id="path3871"
         d="m 165.9126,547.33683 c 0,0 -1.18612,-1.20894 -2.76002,-1.50548"
         style="opacity:1;vector-effect:none;fill:none;fill-opacity:1;stroke:#333333;stroke-width:0.264583;stroke-linecap:butt;stroke-linejoin:bevel;stroke-miterlimit:4;stroke-dasharray:none;stroke-dashoffset:0;stroke-opacity:1" />
      <path
         sodipodi:nodetypes="cccc"
         inkscape:connector-curvature="0"
         id="path3873"
         d="m 161.27076,545.46638 c 0,0 0.75273,-0.95802 0.88959,-1.25454 0,0 1.08348,-0.15966 0.80976,0.26232 0,0 -0.52463,0.4334 -0.63868,0.71852"
         style="opacity:1;vector-effect:none;fill:none;fill-opacity:1;stroke:#333333;stroke-width:0.264583;stroke-linecap:butt;stroke-linejoin:bevel;stroke-miterlimit:4;stroke-dasharray:none;stroke-dashoffset:0;stroke-opacity:1" />
      <path
         sodipodi:nodetypes="cccccccccc"
         inkscape:connector-curvature="0"
         id="path3875"
         d="m 172.37546,524.2719 5.71904,5.14337 -1.5068,14.43161 -1.94642,-0.40173 c -0.9352,0.25213 -1.15044,1.01852 -1.51614,1.67744 0.0381,1.03719 0.65637,1.49418 1.41937,1.80646 0.21783,-0.56539 0.47844,-1.11651 0.95161,-1.59678 0,0 1.43827,0.93062 1.77698,0.65642 0,0 4.58621,-16.83395 4.39266,-17.89847 -0.19355,-0.80646 -11.0789,-9.59732 -11.0789,-9.59732"
         style="opacity:1;vector-effect:none;fill:none;fill-opacity:1;stroke:#333333;stroke-width:0.264583;stroke-linecap:butt;stroke-linejoin:bevel;stroke-miterlimit:4;stroke-dasharray:none;stroke-dashoffset:0;stroke-opacity:1" />
      <path
         sodipodi:nodetypes="cc"
         inkscape:connector-curvature="0"
         id="path3877"
         d="m 173.9316,546.52582 c 0,0 0.59678,-1.46775 1.30646,-1.74197"
         style="opacity:1;vector-effect:none;fill:none;fill-opacity:1;stroke:#333333;stroke-width:0.264583;stroke-linecap:butt;stroke-linejoin:bevel;stroke-miterlimit:4;stroke-dasharray:none;stroke-dashoffset:0;stroke-opacity:1" />
      <path
         sodipodi:nodetypes="cc"
         inkscape:connector-curvature="0"
         id="path3879"
         d="m 173.27031,545.94516 c 0,0 0.85484,-1.80647 1.6613,-1.85486"
         style="opacity:1;vector-effect:none;fill:none;fill-opacity:1;stroke:#333333;stroke-width:0.264583;stroke-linecap:butt;stroke-linejoin:bevel;stroke-miterlimit:4;stroke-dasharray:none;stroke-dashoffset:0;stroke-opacity:1" />
      <path
         sodipodi:nodetypes="cccc"
         inkscape:connector-curvature="0"
         id="path3881"
         d="m 170.65137,518.55741 c -1.40012,-0.31336 -2.76467,-0.4736 -4.09944,-0.51586 m -2.29401,0.0387 c -1.58181,0.10057 -3.12464,0.34514 -4.63888,0.67071"
         style="opacity:1;vector-effect:none;fill:none;fill-opacity:1;stroke:#333333;stroke-width:0.264583;stroke-linecap:butt;stroke-linejoin:bevel;stroke-miterlimit:4;stroke-dasharray:none;stroke-dashoffset:0;stroke-opacity:1" />
      <path
         sodipodi:nodetypes="cccscc"
         inkscape:connector-curvature="0"
         id="path3889"
         d="m 159.86929,599.70634 c 0,0 0.86732,0.93857 0.1563,2.40771 -0.96732,0.70842 -1.66387,2.49991 -2.4786,3.8187 0,0 -3.73543,0.55691 -4.48202,0.062 -0.35721,-0.23678 0.0863,-1.28279 0.0863,-1.28279 0,0 2.79824,-1.8709 4.08054,-5.7381"
         style="opacity:1;vector-effect:none;fill:none;fill-opacity:1;stroke:#333333;stroke-width:0.264583;stroke-linecap:butt;stroke-linejoin:bevel;stroke-miterlimit:4;stroke-dasharray:none;stroke-dashoffset:0;stroke-opacity:1" />
      <path
         sodipodi:nodetypes="cccc"
         inkscape:connector-curvature="0"
         id="path3891"
         d="m 160.00614,602.18698 0.11291,1.58068 -0.5417,-0.0751 -0.0309,-1.15073"
         style="opacity:1;vector-effect:none;fill:none;fill-opacity:1;stroke:#333333;stroke-width:0.264583;stroke-linecap:butt;stroke-linejoin:bevel;stroke-miterlimit:4;stroke-dasharray:none;stroke-dashoffset:0;stroke-opacity:1" />
      <path
         sodipodi:nodetypes="ccc"
         style="opacity:1;vector-effect:none;fill:none;fill-opacity:1;stroke:#333333;stroke-width:0.264583;stroke-linecap:butt;stroke-linejoin:bevel;stroke-miterlimit:4;stroke-dasharray:none;stroke-dashoffset:0;stroke-opacity:1"
         d="m 153.29864,604.65846 c 0,0 2.54299,-0.36563 3.04481,-1.2096 0,0 -0.26195,1.57457 1.12943,2.44136"
         id="path3895"
         inkscape:connector-curvature="0" />
      <path
         style="opacity:1;vector-effect:none;fill:none;fill-opacity:1;stroke:#333333;stroke-width:0.290605;stroke-linecap:butt;stroke-linejoin:bevel;stroke-miterlimit:4;stroke-dasharray:none;stroke-dashoffset:0;stroke-opacity:1"
         d="m 163.67824,599.56976 c 0,0 -0.93649,1.08098 -0.0762,2.54581 1.51147,0.48422 2.77104,2.22796 4.12796,3.48492 0,0 2.87441,0.57141 3.77773,0.0779 0.43219,-0.23609 -0.36249,-0.97258 -0.36249,-0.97258 0,0 -1.86951,-0.92992 -4.61456,-4.76965"
         id="path3897"
         inkscape:connector-curvature="0"
         sodipodi:nodetypes="cccscc" />
      <path
         sodipodi:nodetypes="cccc"
         inkscape:connector-curvature="0"
         id="path3903"
         d="m 163.65133,602.18699 0.0968,1.62904 0.56452,0.0806 -0.0645,-1.48387"
         style="opacity:1;vector-effect:none;fill:none;fill-opacity:1;stroke:#333333;stroke-width:0.264583;stroke-linecap:butt;stroke-linejoin:bevel;stroke-miterlimit:4;stroke-dasharray:none;stroke-dashoffset:0;stroke-opacity:1" />
      <path
         sodipodi:nodetypes="ccc"
         inkscape:connector-curvature="0"
         id="path3905"
         d="m 171.19976,604.76765 c 0,0 -2.22582,-0.41934 -2.56453,-0.7742 0,0 0.3871,0.79034 -0.91936,1.5968"
         style="opacity:1;vector-effect:none;fill:none;fill-opacity:1;stroke:#333333;stroke-width:0.264583;stroke-linecap:butt;stroke-linejoin:bevel;stroke-miterlimit:4;stroke-dasharray:none;stroke-dashoffset:0;stroke-opacity:1" />
      <path
         transform="scale(0.26458333)"
         inkscape:connector-curvature="0"
         id="path4406"
         d="m 603.9119,2281.2477 c -0.21884,-0.043 -0.23414,-0.135 -0.30376,-1.8237 l -0.0733,-1.7783 0.38624,-0.3863 0.38623,-0.3862 0.007,0.438 c 0.004,0.2409 0.0666,1.2422 0.13965,2.225 0.14733,1.9808 0.18709,1.8552 -0.54181,1.7115 z"
         style="opacity:1;vector-effect:none;fill:#cccccc;fill-opacity:1;stroke:#1a1a1a;stroke-width:0.138069;stroke-linecap:butt;stroke-linejoin:bevel;stroke-miterlimit:4;stroke-dasharray:none;stroke-dashoffset:0;stroke-opacity:1;paint-order:normal" />
      <path
         transform="scale(0.26458333)"
         inkscape:connector-curvature="0"
         id="path4408"
         d="m 619.56504,2281.6872 c -0.10941,-0.029 -0.19201,-0.1536 -0.19143,-0.2897 5.6e-4,-0.1316 -0.0567,-1.2171 -0.12724,-2.4122 -0.0705,-1.1951 -0.0998,-2.2013 -0.0651,-2.236 0.0347,-0.035 0.28472,0.035 0.55555,0.1547 l 0.49243,0.2178 0.0675,1.3034 c 0.0371,0.7169 0.0948,1.7612 0.12815,2.3206 l 0.0607,1.0172 -0.36402,-0.013 c -0.20021,-0.01 -0.45062,-0.035 -0.55646,-0.063 z"
         style="opacity:1;vector-effect:none;fill:#cccccc;fill-opacity:1;stroke:#1a1a1a;stroke-width:0.138069;stroke-linecap:butt;stroke-linejoin:bevel;stroke-miterlimit:4;stroke-dasharray:none;stroke-dashoffset:0;stroke-opacity:1;paint-order:normal" />
    </g>
  </g>
</svg>
