<?xml version="1.0" encoding="UTF-8" standalone="no"?>
<svg
   xmlns:dc="http://purl.org/dc/elements/1.1/"
   xmlns:cc="http://creativecommons.org/ns#"
   xmlns:rdf="http://www.w3.org/1999/02/22-rdf-syntax-ns#"
   xmlns:svg="http://www.w3.org/2000/svg"
   xmlns="http://www.w3.org/2000/svg"
   xmlns:sodipodi="http://sodipodi.sourceforge.net/DTD/sodipodi-0.dtd"
   xmlns:inkscape="http://www.inkscape.org/namespaces/inkscape"
   width="30.192612mm"
   height="50.391834mm"
   viewBox="0 0 30.192612 50.391834"
   version="1.1"
   id="svg452"
   inkscape:version="1.0.2 (e86c870879, 2021-01-15, custom)"
   sodipodi:docname="woman_head.svg">
  <defs
     id="defs446">
    <clipPath
       clipPathUnits="userSpaceOnUse"
       id="clipPath4183-5-8">
      <path
         sodipodi:nodetypes="ccc"
         inkscape:connector-curvature="0"
         id="path4185-1-1"
         d="m -2287.4079,238.44961 c 0,0 -3.8584,-6.35728 -13.9193,-2.5026 -1.5227,1.48827 7.9914,14.45701 13.9193,2.5026 z"
         style="opacity:1;vector-effect:none;fill:#e6e6e6;fill-opacity:1;stroke:#1a1a1a;stroke-width:0.571477;stroke-linecap:butt;stroke-linejoin:bevel;stroke-miterlimit:4;stroke-dasharray:none;stroke-dashoffset:0;stroke-opacity:1;paint-order:normal" />
    </clipPath>
    <clipPath
       clipPathUnits="userSpaceOnUse"
       id="clipPath4173-7-6">
      <path
         style="opacity:1;vector-effect:none;fill:#e6e6e6;fill-opacity:1;stroke:#1a1a1a;stroke-width:0.571477;stroke-linecap:butt;stroke-linejoin:bevel;stroke-miterlimit:4;stroke-dasharray:none;stroke-dashoffset:0;stroke-opacity:1;paint-order:normal"
         d="m -2284.2565,236.63802 c 0,0 -0.7484,-6.13966 6.6678,-7.94703 1.5143,0.12811 3.1112,11.59723 -6.6678,7.94703 z"
         id="path4175-3-3"
         inkscape:connector-curvature="0"
         sodipodi:nodetypes="ccc" />
    </clipPath>
    <inkscape:path-effect
       miter_limit="100"
       jointype="extrapolated"
       smoothing="0.5"
       end_offset="0.12038795"
       attach_start="0.45640661"
       stroke_width="2"
       is_visible="true"
       id="path-effect1025-2-3-7"
       effect="taper_stroke"
       lpeversion="0" />
    <inkscape:path-effect
       effect="taper_stroke"
       id="path-effect1029-8-8-6"
       is_visible="true"
       stroke_width="2"
       attach_start="0.61152215"
       end_offset="0.13096768"
       smoothing="0.5"
       jointype="extrapolated"
       miter_limit="100"
       lpeversion="0" />
  </defs>
  <sodipodi:namedview
     id="base"
     pagecolor="#ffffff"
     bordercolor="#666666"
     borderopacity="1.0"
     inkscape:pageopacity="0.0"
     inkscape:pageshadow="2"
     inkscape:zoom="0.35"
     inkscape:cx="-322.94309"
     inkscape:cy="-210.48563"
     inkscape:document-units="mm"
     inkscape:current-layer="layer1"
     inkscape:document-rotation="0"
     showgrid="false"
     fit-margin-top="0"
     fit-margin-left="0"
     fit-margin-right="0"
     fit-margin-bottom="0"
     inkscape:window-width="1431"
     inkscape:window-height="1208"
     inkscape:window-x="224"
     inkscape:window-y="1350"
     inkscape:window-maximized="0" />
  <metadata
     id="metadata449">
    <rdf:RDF>
      <cc:Work
         rdf:about="">
        <dc:format>image/svg+xml</dc:format>
        <dc:type
           rdf:resource="http://purl.org/dc/dcmitype/StillImage" />
        <dc:title></dc:title>
      </cc:Work>
    </rdf:RDF>
  </metadata>
  <g
     inkscape:label="Layer 1"
     inkscape:groupmode="layer"
     id="layer1"
     transform="translate(-191.27869,-203.85766)">
    <g
       id="g721"
       transform="translate(155.90466,-318.61231)">
      <path
         sodipodi:nodetypes="ccccccccc"
         inkscape:connector-curvature="0"
         id="path4845"
         d="m 35.48917,569.47232 c 0,0 13.33298,7.07799 29.95805,0.32921 0,0 -3.67779,-5.27018 -4.14336,-15.45458 -0.69836,-3.60819 1.43762,-17.50852 0.73925,-21.93147 -1.02547,-7.2907 -5.69374,-9.41871 -9.46958,-7.87481 -2.05204,-1.62524 -7.10661,-3.18482 -11.00632,-0.37634 -3.9807,2.73147 -4.21079,8.83987 -4.03672,13.57502 -0.14549,4.9758 1.775,16.12044 1.6586,19.17575 0.1164,6.25613 -0.70281,8.68715 -3.69992,12.55722 z"
         style="opacity:1;vector-effect:none;fill:#e6e6e6;fill-opacity:1;stroke:#333333;stroke-width:0.291257;stroke-linecap:butt;stroke-linejoin:bevel;stroke-miterlimit:4;stroke-dasharray:none;stroke-dashoffset:0;stroke-opacity:1;paint-order:normal" />
      <g
         transform="matrix(0.63242369,0,0,0.63242369,111.20732,497.03036)"
         id="g4908">
        <path
           sodipodi:nodetypes="ccscc"
           inkscape:connector-curvature="0"
           id="path4870"
           d="m -90.603549,45.685665 c -8.090972,1.113054 -15.479401,4.897393 -22.146021,11.427395 3.25739,9.575178 12.59614,29.301141 25.140549,24.383079 7.753754,-3.039941 9.005173,-14.714531 7.295483,-25.69814 -0.135483,-0.798802 -2.06892,-9.994051 -10.290011,-10.112334 z"
           style="opacity:1;vector-effect:none;fill:#e6e6e6;fill-opacity:1;stroke:#1a1a1a;stroke-width:0.460541;stroke-linecap:butt;stroke-linejoin:bevel;stroke-miterlimit:4;stroke-dasharray:none;stroke-dashoffset:0;stroke-opacity:1;paint-order:normal"
           inkscape:transform-center-x="5.9998294"
           inkscape:transform-center-y="-17.930307" />
        <path
           inkscape:transform-center-y="-19.104288"
           inkscape:transform-center-x="4.2607395"
           style="opacity:1;vector-effect:none;fill:#e6e6e6;fill-opacity:1;stroke:#1a1a1a;stroke-width:0.447854;stroke-linecap:butt;stroke-linejoin:bevel;stroke-miterlimit:4;stroke-dasharray:none;stroke-dashoffset:0;stroke-opacity:1;paint-order:normal"
           d="m -89.749797,64.17928 c 0,0 -1.264946,-6.031291 -9.160759,-5.404149 -1.398684,0.819207 2.329371,13.524269 9.160759,5.404149 z"
           id="path4872"
           inkscape:connector-curvature="0"
           sodipodi:nodetypes="ccc" />
        <path
           inkscape:transform-center-y="-19.984674"
           inkscape:transform-center-x="-6.4487086"
           sodipodi:nodetypes="ccc"
           inkscape:connector-curvature="0"
           id="path4874"
           d="m -87.140632,63.499201 c 0,0 0.858766,-5.097137 6.446348,-4.731773 1.029335,0.47254 -0.442635,10.042371 -6.446348,4.731773 z"
           style="opacity:1;vector-effect:none;fill:#e6e6e6;fill-opacity:1;stroke:#333333;stroke-width:0.447854;stroke-linecap:butt;stroke-linejoin:bevel;stroke-miterlimit:4;stroke-dasharray:none;stroke-dashoffset:0;stroke-opacity:1;paint-order:normal" />
        <ellipse
           inkscape:transform-center-y="-17.318125"
           inkscape:transform-center-x="1.4930459"
           style="opacity:1;vector-effect:none;fill:#333333;fill-opacity:1;stroke:#333333;stroke-width:0.173443;stroke-linecap:butt;stroke-linejoin:bevel;stroke-miterlimit:4;stroke-dasharray:none;stroke-dashoffset:0;stroke-opacity:1;paint-order:normal"
           id="ellipse4876"
           cx="-2289.8096"
           cy="239.69669"
           rx="3.1774294"
           ry="3.4913049"
           clip-path="url(#clipPath4183-5-8)"
           transform="matrix(0.69859377,0.24433552,-0.22502773,0.80042036,1561.8769,432.21426)" />
        <ellipse
           inkscape:transform-center-y="-19.848296"
           inkscape:transform-center-x="-9.3589605"
           ry="3.1811051"
           rx="2.8951173"
           cy="232.50124"
           cx="-2276.5933"
           id="ellipse4878"
           style="opacity:1;vector-effect:none;fill:#1a1a1a;fill-opacity:1;stroke:#333333;stroke-width:0.158033;stroke-linecap:butt;stroke-linejoin:bevel;stroke-miterlimit:4;stroke-dasharray:none;stroke-dashoffset:0;stroke-opacity:1;paint-order:normal"
           clip-path="url(#clipPath4173-7-6)"
           transform="matrix(0.69859377,0.24433552,-0.22502773,0.80042036,1561.8769,432.21426)" />
        <path
           inkscape:transform-center-y="-15.039826"
           inkscape:transform-center-x="-3.3964595"
           style="opacity:1;vector-effect:none;fill:#e6e6e6;fill-opacity:1;stroke:#1a1a1a;stroke-width:0.499;stroke-linecap:butt;stroke-linejoin:miter;stroke-miterlimit:0;stroke-dasharray:none;stroke-dashoffset:0;stroke-opacity:1;paint-order:normal"
           d="m -87.935819,64.855337 c -0.154784,0.492286 -0.220908,1.006266 -0.02635,1.583671 0.04462,0.06009 1.731073,0.612262 2.406909,-0.05897 0,0 -0.547307,1.801818 -1.757762,2.502331"
           id="path4880"
           inkscape:connector-curvature="0"
           sodipodi:nodetypes="cccc" />
        <g
           style="opacity:1;vector-effect:none;fill:#e6e6e6;fill-opacity:1;stroke:#1a1a1a;stroke-width:1.83154;stroke-linecap:butt;stroke-linejoin:bevel;stroke-miterlimit:4;stroke-dasharray:none;stroke-dashoffset:0;stroke-opacity:1;paint-order:normal"
           inkscape:transform-center-y="-13.193247"
           inkscape:transform-center-x="17.357672"
           transform="matrix(-0.23917809,0.03435809,0.03362764,0.25952017,-187.29893,334.55959)"
           id="g4886">
          <path
             sodipodi:nodetypes="cssc"
             style="opacity:1;vector-effect:none;fill:#e6e6e6;fill-opacity:1;stroke:#1a1a1a;stroke-width:1.83154;stroke-linecap:butt;stroke-linejoin:bevel;stroke-miterlimit:4;stroke-dasharray:none;stroke-dashoffset:0;stroke-opacity:1;paint-order:normal"
             d="m -479.3486,-966.20878 c 0,0 10.61855,-12.65462 15.72742,-9.32979 9.44986,6.14998 5.49959,20.16083 -3.9985,26.23601 -3.14827,2.01368 -10.66265,-3.46527 -10.66265,-3.46527"
             id="path4882"
             inkscape:connector-curvature="0" />
          <path
             inkscape:connector-curvature="0"
             id="path4884"
             d="m -475.57687,-964.13086 c 0,0 9.04756,-13.0059 13.19436,-3.01584"
             style="opacity:1;vector-effect:none;fill:#e6e6e6;fill-opacity:1;stroke:#1a1a1a;stroke-width:1.83154;stroke-linecap:butt;stroke-linejoin:bevel;stroke-miterlimit:4;stroke-dasharray:none;stroke-dashoffset:0;stroke-opacity:1;paint-order:normal" />
        </g>
        <g
           style="fill:#333333"
           inkscape:transform-center-y="-25.118169"
           inkscape:transform-center-x="0.79916589"
           id="g4892"
           transform="matrix(0.3318723,-0.01057856,0.01243391,0.35979923,270.41764,630.48248)">
          <path
             style="opacity:1;vector-effect:none;fill:#333333;fill-opacity:1;fill-rule:nonzero;stroke:none;stroke-width:0.231953;stroke-linecap:butt;stroke-linejoin:bevel;stroke-miterlimit:4;stroke-dasharray:none;stroke-dashoffset:0;stroke-opacity:1"
             d="m -1051.6998,-1625.7617 c -2.5871,1.2467 -4.7928,2.7845 -6.4588,4.164 -0.7752,0.6417 -1.3259,1.1552 -1.7662,1.6101 0,0 0,0 0,0 -0.2161,0.2233 -0.3574,0.3819 -0.4781,0.5331 0,0 0,0 0,0 -0.1377,0.1687 -0.1911,0.2977 -0.1911,0.2977 0,0 0.076,-0.079 0.2708,-0.2093 0,0 0,0 0,0 0.1661,-0.1054 0.331,-0.1989 0.6063,-0.3478 0,0 0,0 0,0 0.5962,-0.322 1.1532,-0.5975 2.0937,-1.0509 2.2203,-1.0692 4.5716,-2.1261 6.7919,-3.1953 4.9617,-2.392 11.2529,-4.6766 17.5005,-5.0463 2.5522,-0.1496 5.3544,-0.8002 5.3544,-0.8002 0,0 -2.5703,-1.3695 -5.4725,-1.1963 -6.5529,0.3877 -13.1775,2.7953 -18.2509,5.2412 z"
             id="path4888"
             inkscape:connector-curvature="0"
             inkscape:path-effect="#path-effect1025-2-3-7"
             inkscape:original-d="m -1060.594,-1619.1568 c 0.3975,-0.8805 17.8585,-12.7621 32.6176,-10.6498"
             sodipodi:nodetypes="cc" />
          <path
             sodipodi:nodetypes="cc"
             inkscape:original-d="m -996.11141,-1622.0174 c -0.32982,-0.908 -7.84289,-8.7696 -22.71939,-7.7784"
             inkscape:path-effect="#path-effect1029-8-8-6"
             inkscape:connector-curvature="0"
             id="path4890"
             d="m -1005.1727,-1626.9352 c 2.5966,0.9933 4.5587,1.8743 6.433,2.9802 0.80042,0.4728 1.35901,0.8481 1.84058,1.2155 0,0 0,0 0,0 0.55318,0.445 0.78771,0.7221 0.78771,0.7221 0,0 -0.13871,-0.4303 -0.52346,-0.973 0,0 0,0 0,0 -0.34465,-0.4983 -0.81596,-1.0795 -1.493,-1.752 -1.52239,-1.5128 -3.65743,-3.0446 -6.33223,-4.0616 -2.4497,-0.9341 -5.3895,-1.6778 -8.8229,-1.9579 -2.8735,-0.234 -5.5478,0.9661 -5.5478,0.9661 0,0 2.7878,0.815 5.3852,1.0273 3.2366,0.264 5.9933,0.964 8.2729,1.8333 z"
             style="opacity:1;vector-effect:none;fill:#333333;fill-opacity:1;fill-rule:nonzero;stroke:none;stroke-width:0.231953;stroke-linecap:butt;stroke-linejoin:bevel;stroke-miterlimit:4;stroke-dasharray:none;stroke-dashoffset:0;stroke-opacity:1" />
        </g>
        <g
           inkscape:transform-center-y="-10.10152"
           inkscape:transform-center-x="-2.7341334"
           id="g4898"
           style="opacity:1;vector-effect:none;fill:#e6e6e6;fill-opacity:1;stroke:#333333;stroke-width:0.324114;stroke-linecap:butt;stroke-linejoin:bevel;stroke-miterlimit:4;stroke-dasharray:none;stroke-dashoffset:0;stroke-opacity:1;paint-order:normal"
           transform="matrix(1.2324275,0.54478071,-0.49271928,1.3314306,2844.1764,986.27652)">
          <path
             sodipodi:nodetypes="cscc"
             inkscape:connector-curvature="0"
             id="path4894"
             d="m -2278.4099,245.43171 c 0,0 -0.022,-1.67186 -0.547,-1.60111 -0.8441,0.11372 -0.095,1.4555 -3.2644,4.03706 z"
             style="opacity:1;vector-effect:none;fill:#e6e6e6;fill-opacity:1;stroke:#333333;stroke-width:0.324114;stroke-linecap:butt;stroke-linejoin:bevel;stroke-miterlimit:4;stroke-dasharray:none;stroke-dashoffset:0;stroke-opacity:1;paint-order:normal" />
          <path
             sodipodi:nodetypes="cscc"
             inkscape:connector-curvature="0"
             id="path4896"
             d="m -2279.3021,246.03505 c 0.2165,-0.15901 0.7646,1.62872 -0.068,1.56669 -1.4486,-0.10791 -2.7052,0.19109 -2.7052,0.19109 z"
             style="opacity:1;vector-effect:none;fill:#e6e6e6;fill-opacity:1;stroke:#333333;stroke-width:0.324114;stroke-linecap:butt;stroke-linejoin:bevel;stroke-miterlimit:4;stroke-dasharray:none;stroke-dashoffset:0;stroke-opacity:1;paint-order:normal" />
        </g>
        <path
           inkscape:transform-center-y="-20.474039"
           inkscape:transform-center-x="4.0991538"
           sodipodi:nodetypes="ccccc"
           inkscape:connector-curvature="0"
           id="path4900"
           d="m -89.795104,64.182457 c 0,0 -6.09539,-4.551159 -9.038523,-4.623752 l 0.14674,-0.703713 c 0.103975,-0.516996 7.746391,-0.127083 8.890534,5.327328 z"
           style="opacity:1;vector-effect:none;fill:#b3b3b3;fill-opacity:1;stroke:none;stroke-width:0.213222;stroke-linecap:butt;stroke-linejoin:bevel;stroke-miterlimit:4;stroke-dasharray:none;stroke-dashoffset:0;stroke-opacity:1" />
        <path
           inkscape:transform-center-y="-20.880015"
           inkscape:transform-center-x="-6.5197092"
           inkscape:connector-curvature="0"
           id="path4902"
           d="m -87.003266,63.36501 c 0,0 4.420799,-4.049775 6.615528,-3.518402 l -0.361712,-1.154287 c 0,0 -5.120563,-0.03086 -6.253816,4.672689 z"
           style="opacity:1;vector-effect:none;fill:#b3b3b3;fill-opacity:1;stroke:none;stroke-width:0.213222;stroke-linecap:butt;stroke-linejoin:bevel;stroke-miterlimit:4;stroke-dasharray:none;stroke-dashoffset:0;stroke-opacity:1" />
        <path
           inkscape:transform-center-y="-20.004909"
           inkscape:transform-center-x="4.2969268"
           sodipodi:nodetypes="cc"
           inkscape:connector-curvature="0"
           id="path4904"
           d="m -89.841888,64.429287 c -2.117569,-2.005905 -5.522817,-4.988386 -9.340502,-5.051036"
           style="opacity:1;vector-effect:none;fill:none;fill-opacity:1;stroke:#333333;stroke-width:0.852887;stroke-linecap:butt;stroke-linejoin:bevel;stroke-miterlimit:4;stroke-dasharray:none;stroke-dashoffset:0;stroke-opacity:1;paint-order:normal" />
        <path
           inkscape:transform-center-y="-20.225539"
           inkscape:transform-center-x="-6.5846507"
           inkscape:connector-curvature="0"
           id="path4906"
           d="m -86.998855,63.508298 c 0,0 3.777967,-3.956519 6.736588,-3.631314"
           style="opacity:1;vector-effect:none;fill:none;fill-opacity:1;stroke:#333333;stroke-width:0.852887;stroke-linecap:butt;stroke-linejoin:bevel;stroke-miterlimit:4;stroke-dasharray:none;stroke-dashoffset:0;stroke-opacity:1;paint-order:normal" />
      </g>
      <g
         transform="matrix(0.63242369,0,0,0.63242369,57.05238,497.03036)"
         id="g5131">
        <path
           style="opacity:1;vector-effect:none;fill:none;fill-opacity:1;stroke:#1a1a1a;stroke-width:0.460541;stroke-linecap:butt;stroke-linejoin:bevel;stroke-miterlimit:4;stroke-dasharray:none;stroke-dashoffset:0;stroke-opacity:1;paint-order:normal"
           d="m 5.9411559,61.148069 c -0.92674,-10.909054 -7.58498,-13.365988 -7.8206,-13.029384 l -5.14801,-4.627455"
           id="path4910"
           inkscape:connector-curvature="0"
           sodipodi:nodetypes="ccc" />
        <path
           sodipodi:type="inkscape:offset"
           inkscape:radius="-0.9227674"
           inkscape:original="M -583.70312 159.41797 C -586.19826 159.40157 -588.76538 159.52259 -591.42383 159.81641 C -642.04686 165.99961 -641.25745 211.41104 -643.94141 243.28711 C -644.31737 256.14525 -642.3661 275.89335 -640.10742 295.64844 L -574 299.14648 L -585.3125 219.95703 L -568.09766 187.00195 L -548.91602 177.16406 L -534.49023 181.5918 L -553.83398 164.37695 L -553.83594 164.375 C -553.90434 164.3868 -553.97255 164.3963 -554.04102 164.4082 C -563.45497 162.13351 -572.89086 159.48924 -583.70312 159.41797 z "
           style="opacity:1;vector-effect:none;fill:#e6e6e6;fill-opacity:1;stroke:none;stroke-width:1;stroke-linecap:butt;stroke-linejoin:bevel;stroke-miterlimit:4;stroke-dasharray:none;stroke-dashoffset:0;stroke-opacity:1"
           id="path5053"
           transform="matrix(0.26458333,0,0,0.26458333,139.50791,0)"
           d="m -583.70898,160.33984 c -2.46115,-0.0162 -4.99181,0.1048 -7.61329,0.39454 -25.03398,3.06079 -37.10453,15.63957 -43.48046,31.52539 -6.37309,15.87872 -6.87289,35.09964 -8.2168,51.07617 -0.36494,12.56604 1.53269,31.96335 3.75,51.43164 l 64.19726,3.39844 -11.15429,-78.07813 a 0.92285968,0.92285968 0 0 1 0.0957,-0.55859 l 17.21484,-32.95508 a 0.92285968,0.92285968 0 0 1 0.39649,-0.39258 l 19.18164,-9.83789 a 0.92285968,0.92285968 0 0 1 0.69336,-0.0625 l 10.37891,3.18555 -15.89258,-14.14453 a 0.92285968,0.92285968 0 0 1 -0.0996,-0.0176 c -9.43581,-2.27998 -18.78582,-4.89454 -29.45117,-4.96485 z" />
        <path
           style="opacity:1;vector-effect:none;fill:#e6e6e6;fill-opacity:1;stroke:#333333;stroke-width:0.460541;stroke-linecap:butt;stroke-linejoin:bevel;stroke-miterlimit:4;stroke-dasharray:none;stroke-dashoffset:0;stroke-opacity:1;paint-order:normal"
           d="m -1.9095241,48.04606 c 0,0 -12.2329699,-2.602762 -10.1507599,20.952211 1.84767,11.58841 8.1871199,10.557802 7.9384099,24.986492 0,0.415686 -1.17124,13.291117 -9.5000699,18.219317 1.32854,0.73808 6.4118199,-14.27495 4.1105099,-21.641021 -2.2526499,-8.01659 -10.0782999,-9.521461 -8.6495599,-24.818236 l 0.56982,-7.255192"
           id="path4912"
           inkscape:connector-curvature="0"
           sodipodi:nodetypes="ccccccc" />
        <path
           sodipodi:type="inkscape:offset"
           inkscape:radius="-0.18607153"
           inkscape:original="M -146.53516 43.492188 L -141.33008 48.175781 C -141.09446 47.839177 -134.49315 50.239384 -133.56641 61.148438 L -132.41602 57.806641 L -134.10742 52.080078 L -136.51562 47.851562 L -140.61328 44.988281 L -144.51758 43.947266 L -145.625 43.621094 L -146.53516 43.492188 z "
           style="opacity:1;vector-effect:none;fill:#e6e6e6;fill-opacity:1;stroke:none;stroke-width:0.460541;stroke-linecap:butt;stroke-linejoin:bevel;stroke-miterlimit:4;stroke-dasharray:none;stroke-dashoffset:0;stroke-opacity:1;paint-order:normal"
           id="path5092"
           transform="translate(139.50791)"
           d="m -145.95703,43.761719 4.67578,4.205078 c 0.0239,-0.0025 0.0482,-0.0065 0.0723,-0.0059 0.0846,0.0024 0.17937,0.019 0.29101,0.04883 0.22329,0.05965 0.5124,0.172358 0.85547,0.351562 0.68615,0.358408 1.57799,0.980777 2.49023,1.957031 1.73068,1.8521 3.51333,5.004612 4.0918,10.007813 l 0.86914,-2.523438 -1.66797,-5.648437 -2.37695,-4.173828 -4.03711,-2.820313 -3.87305,-1.033203 a 0.18609014,0.18609014 0 0 1 -0.004,-0.002 l -1.09375,-0.322266 z" />
      </g>
    </g>
  </g>
</svg>
