<?xml version="1.0" encoding="UTF-8" standalone="no"?>
<svg
   xmlns:dc="http://purl.org/dc/elements/1.1/"
   xmlns:cc="http://creativecommons.org/ns#"
   xmlns:rdf="http://www.w3.org/1999/02/22-rdf-syntax-ns#"
   xmlns:svg="http://www.w3.org/2000/svg"
   xmlns="http://www.w3.org/2000/svg"
   xmlns:sodipodi="http://sodipodi.sourceforge.net/DTD/sodipodi-0.dtd"
   xmlns:inkscape="http://www.inkscape.org/namespaces/inkscape"
   width="30.227348mm"
   height="36.811192mm"
   viewBox="0 0 30.227348 36.811192"
   version="1.1"
   id="svg383"
   inkscape:version="1.0.2 (e86c870879, 2021-01-15, custom)"
   sodipodi:docname="man_head.svg">
  <defs
     id="defs377" />
  <sodipodi:namedview
     id="base"
     pagecolor="#ffffff"
     bordercolor="#666666"
     borderopacity="1.0"
     inkscape:pageopacity="0.0"
     inkscape:pageshadow="2"
     inkscape:zoom="0.35"
     inkscape:cx="-145.7346"
     inkscape:cy="-70.435557"
     inkscape:document-units="mm"
     inkscape:current-layer="layer1"
     inkscape:document-rotation="0"
     showgrid="false"
     inkscape:window-width="1431"
     inkscape:window-height="1208"
     inkscape:window-x="96"
     inkscape:window-y="1350"
     inkscape:window-maximized="0"
     fit-margin-top="0"
     fit-margin-left="0"
     fit-margin-right="0"
     fit-margin-bottom="0" />
  <metadata
     id="metadata380">
    <rdf:RDF>
      <cc:Work
         rdf:about="">
        <dc:format>image/svg+xml</dc:format>
        <dc:type
           rdf:resource="http://purl.org/dc/dcmitype/StillImage" />
        <dc:title></dc:title>
      </cc:Work>
    </rdf:RDF>
  </metadata>
  <g
     inkscape:label="Layer 1"
     inkscape:groupmode="layer"
     id="layer1"
     transform="translate(-144.39228,-166.80274)">
    <g
       transform="matrix(0.80362322,0,0,0.80362322,28.86592,-886.12961)"
       id="g5384">
      <path
         inkscape:connector-curvature="0"
         style="opacity:1;vector-effect:none;fill:#ffffff;fill-opacity:1;stroke:none;stroke-width:0.135495;stroke-linecap:butt;stroke-linejoin:miter;stroke-miterlimit:4;stroke-dasharray:none;stroke-dashoffset:0;stroke-opacity:1;paint-order:normal"
         d="m 625.64453,5029.7852 c -0.0412,-0.01 -1.75056,0.1825 -0.55664,0.055 -0.31145,0.033 -0.7514,0.08 -1.28711,0.1387 -1.07141,0.1169 -2.52636,0.2788 -4.10937,0.4551 -2.3852,0.2656 -3.82468,0.4293 -4.67383,0.5391 -0.42458,0.055 -0.69826,0.094 -0.88672,0.1308 -0.0942,0.018 -0.16427,0.033 -0.24805,0.062 -0.0419,0.015 -0.0862,0.029 -0.16406,0.086 -0.0779,0.057 -0.24422,0.2436 -0.20898,0.4902 0.0217,0.1517 0.0402,0.1785 0.0762,0.3066 0.036,0.1281 0.0815,0.2869 0.13086,0.4492 0.24747,0.8146 0.31055,1.2727 0.3125,2.2598 0.002,0.9711 -0.10363,1.6448 -0.39649,2.5098 -0.93907,2.7738 -3.33285,4.8406 -6.07812,5.2812 -0.64016,0.1026 -2.40027,0.02 -2.90625,-0.1191 -2.07882,-0.5711 -3.67824,-1.9037 -4.63282,-3.8633 -0.54153,-1.1117 -0.68672,-1.7306 -0.7246,-3.0976 -0.0229,-0.8261 -0.003,-1.2306 0.0605,-1.5547 0.0297,-0.151 0.0548,-0.2905 0.0703,-0.4043 0.008,-0.057 0.0125,-0.1043 0.0156,-0.1563 0.002,-0.026 0.004,-0.051 0.002,-0.094 -10e-4,-0.021 -0.004,-0.048 -0.0137,-0.092 -0.005,-0.022 -0.0116,-0.048 -0.0273,-0.086 -0.008,-0.019 -0.033,-0.066 -0.0332,-0.066 -2.2e-4,-4e-4 -0.0642,-0.088 -0.0644,-0.088 a 0.5000587,0.5000587 0 0 0 -0.006,-0.01 c -6e-5,-1e-4 -0.14831,-0.1054 -0.14844,-0.1055 -1.2e-4,-10e-5 -0.0799,-0.029 -0.0801,-0.029 -3.8e-4,-1e-4 -0.0586,-0.014 -0.0742,-0.016 -0.0312,0 -0.043,0 -0.0547,0 -0.0233,-4e-4 -0.0353,-5e-4 -0.0488,0 -0.0271,0 -0.0558,0 -0.0898,0.01 -0.068,0.01 -0.15923,0.012 -0.27735,0.023 -0.23622,0.022 -0.57279,0.055 -0.98632,0.098 -0.82707,0.085 -1.96202,0.208 -3.20704,0.3457 -9.61255,1.0626 -15.75259,1.7421 -19.49023,2.1582 -1.86882,0.208 -3.13675,0.3503 -3.93945,0.4414 -0.40135,0.046 -0.68495,0.078 -0.8711,0.1 -0.0931,0.011 -0.16135,0.019 -0.20898,0.025 -0.0238,0 -0.0434,0.01 -0.0606,0.01 -0.009,0 -0.0153,0 -0.0293,0.01 -0.007,0 -0.0139,0 -0.0332,0.01 -0.01,0 -0.0486,0.016 -0.0488,0.016 -2e-4,0 -0.19645,0.1327 -0.20507,0.1386 -10e-6,0 -0.002,0 -0.002,0 -4e-5,0 -0.002,0 -0.002,0 -0.006,0.01 -0.074,0.111 -0.0742,0.1114 -2e-4,4e-4 -0.0233,0.054 -0.0293,0.074 -0.0121,0.04 -0.015,0.064 -0.0176,0.084 -0.005,0.04 -0.004,0.061 -0.004,0.08 -3e-5,0.037 0.002,0.062 0.004,0.09 0.005,0.056 0.0115,0.1183 0.0215,0.1933 0.02,0.1502 0.0495,0.3464 0.0859,0.5684 0.0728,0.444 0.17042,0.9853 0.25781,1.4102 0.63176,3.0713 1.92852,6.0733 3.63672,8.3925 3.70689,5.0329 9.61222,8.0438 16.74609,8.5899 a 0.5000587,0.5000587 0 0 0 0.002,0 c 0.43459,0.033 1.31182,0.056 2.0039,0.066 a 0.5000587,0.5000587 0 0 0 0.004,0 c 7.65483,0.059 15.66193,-2.8176 22.01562,-7.8945 3.65348,-2.9194 6.77308,-6.5675 9.11133,-10.6524 1.02884,-1.7974 2.11414,-4.1447 2.83594,-6.1387 0.1194,-0.3316 0.18414,-0.4549 0.21484,-0.6855 0.008,-0.058 0.0168,-0.1316 -0.0137,-0.2441 -0.0305,-0.1126 -0.13367,-0.2586 -0.24414,-0.3243 -0.22093,-0.1313 -0.30169,-0.08 -0.33984,-0.08 a 0.5000587,0.5000587 0 0 0 -0.01,0 z"
         id="path5348"
         transform="scale(0.26458333)" />
      <path
         inkscape:connector-curvature="0"
         style="opacity:1;vector-effect:none;fill:#ffffff;fill-opacity:1;stroke:none;stroke-width:0.135495;stroke-linecap:butt;stroke-linejoin:miter;stroke-miterlimit:4;stroke-dasharray:none;stroke-dashoffset:0;stroke-opacity:1;paint-order:normal"
         d="m 672.69727,5024.3613 c -0.0286,7e-4 -0.21094,0.011 -0.27344,0.016 -0.14993,0.012 -0.3553,0.03 -0.60742,0.055 -0.50425,0.049 -1.19139,0.1203 -1.94336,0.2032 l -2.72461,0.3007 a 0.74688577,0.74688577 0 0 0 -0.57813,1.0918 l 0.22461,0.4239 c 0.21099,0.3973 0.54269,1.3503 0.69336,2.0644 0.12752,0.6043 0.12672,2.5589 0,3.1543 -0.39022,1.8335 -1.13156,3.2098 -2.30664,4.3379 -1.2459,1.1962 -2.52781,1.7305 -4.08594,1.7305 -0.4085,0 -1.00848,-0.057 -1.15234,-0.088 -2.37113,-0.4988 -4.26073,-2.5328 -4.88867,-5.4453 v 0 c -0.0745,-0.3467 -0.10608,-0.7401 -0.10547,-1.623 8.9e-4,-1.2876 0.0627,-1.6897 0.41211,-2.7324 l 0.19336,-0.5782 a 0.74688577,0.74688577 0 0 0 -0.82227,-0.9746 l -0.2539,0.039 c 0.0486,-0.01 -0.49314,0.059 -1.16602,0.1348 -0.67288,0.076 -1.56873,0.1766 -2.52148,0.2812 -1.90772,0.2095 -7.70337,0.8491 -12.88086,1.4219 -2.58844,0.2863 -4.95295,0.5457 -6.67578,0.7343 -0.86142,0.094 -1.56213,0.1719 -2.05079,0.2247 -0.24432,0.026 -0.43553,0.047 -0.5664,0.06 -0.13087,0.014 -0.12628,0.018 -0.13281,0.018 -0.11131,0 -0.2818,0.028 -0.4336,0.1269 -0.15179,0.099 -0.25198,0.2492 -0.29883,0.3614 -0.0937,0.2244 -0.0709,0.3304 -0.0664,0.4297 0.009,0.1984 0.0432,0.378 0.0976,0.6816 0.0769,0.4286 0.22383,1.0274 0.36914,1.5586 0.0727,0.2656 0.14347,0.5106 0.20704,0.707 0.0318,0.098 0.0621,0.1833 0.0937,0.2637 0.0158,0.04 0.031,0.079 0.0547,0.1269 0.0235,0.047 0.0265,0.094 0.16211,0.2305 0,0 0.002,0 0.002,0 7.7e-4,8e-4 -7.9e-4,0 0,0 0.004,0 0.19108,0.1385 0.1914,0.1386 3.3e-4,2e-4 0.0532,0.024 0.0684,0.029 0.0303,0.012 0.0446,0.016 0.0566,0.02 0.024,0.01 0.0359,0.01 0.0488,0.014 0.0259,0.01 0.0486,0.013 0.0781,0.02 0.059,0.013 0.13841,0.029 0.24024,0.051 0.20365,0.043 0.49795,0.1043 0.875,0.1816 0.75409,0.1546 1.83796,0.3744 3.17383,0.6426 2.67172,0.5362 6.34806,1.2674 10.38476,2.0644 4.03565,0.7968 7.70835,1.5264 10.375,2.0586 1.33333,0.2661 2.41526,0.4831 3.16406,0.6348 0.022,0 0.0294,0.01 0.0508,0.01 -0.88844,1.1308 -4.42174,5.6217 -5.79493,7.3633 l -1.41601,1.795 a 0.74688577,0.74688577 0 0 0 0.60351,1.2089 l 1.61914,-0.037 c 2.27136,-0.054 3.70286,-0.289 5.63477,-0.9238 1.83064,-0.6015 3.63809,-1.5512 5.24219,-2.7559 1.02221,-0.7677 2.59695,-2.3213 3.48047,-3.4199 2.83334,-3.523 4.82924,-8.1247 6.08007,-13.9101 0.11864,-0.5487 0.2806,-1.4417 0.41211,-2.2168 0.0658,-0.3876 0.12279,-0.7431 0.16211,-1.0118 0.0197,-0.1343 0.0348,-0.2457 0.0449,-0.3378 0.005,-0.046 0.009,-0.085 0.0117,-0.1368 0.001,-0.026 0.004,-0.051 0,-0.1054 -0.002,-0.027 -0.003,-0.061 -0.0176,-0.125 -0.007,-0.032 -0.0427,-0.1283 -0.043,-0.1289 -2.7e-4,-7e-4 -0.16179,-0.238 -0.16211,-0.2383 -0.007,0 -0.2341,-0.1581 -0.23438,-0.1582 -2.8e-4,-10e-5 -0.0912,-0.032 -0.11914,-0.039 -0.0558,-0.013 -0.0813,-0.015 -0.10351,-0.018 -0.0444,0 -0.064,0 -0.082,0 z"
         id="path5350"
         transform="scale(0.26458333)" />
      <path
         inkscape:connector-curvature="0"
         style="opacity:1;vector-effect:none;fill:#e6e6e6;fill-opacity:1;stroke:none;stroke-width:0.135495;stroke-linecap:butt;stroke-linejoin:miter;stroke-miterlimit:4;stroke-dasharray:none;stroke-dashoffset:0;stroke-opacity:1;paint-order:normal"
         d="m 649.51172,5050.7773 c -0.11118,-0.01 -0.26611,0.048 -0.375,0.1368 -0.1089,0.089 -0.22783,0.2159 -0.41211,0.4316 -0.36857,0.4314 -0.99088,1.2187 -2.13867,2.6758 l -2.48438,3.1523 a 0.2843664,0.2843664 0 0 0 0.11328,0.4375 l 2.19532,0.9199 c 1.20637,0.5059 3.70691,1.5558 5.55664,2.3321 0.92524,0.3883 1.76651,0.7399 2.3789,0.9941 0.3062,0.1271 0.55566,0.2296 0.72852,0.3008 0.0864,0.036 0.15458,0.063 0.20117,0.082 0.0233,0.01 0.0395,0.018 0.0527,0.024 0.007,0 0.0121,0 0.0176,0.01 0.003,0 0.007,0 0.0117,0 0.002,9e-4 0.005,0 0.0117,0 a 0.2843664,0.2843664 0 0 0 0.002,0 c 0.005,0 0.0136,0 0.0137,0 a 0.2843664,0.2843664 0 0 0 0.21093,-0.029 c 6e-5,-1e-4 0.0859,-0.078 0.0859,-0.078 5e-5,0 0.0351,-0.062 0.0352,-0.062 8e-5,-2e-4 0.0195,-0.07 0.0195,-0.07 8e-5,-6e-4 0.003,-0.046 0.002,-0.057 -0.001,-0.022 -0.004,-0.032 -0.006,-0.041 -0.003,-0.019 -0.007,-0.034 -0.0117,-0.053 -0.009,-0.037 -0.0202,-0.081 -0.0351,-0.1367 -0.03,-0.1114 -0.071,-0.2606 -0.11914,-0.4238 -0.58513,-1.9836 -1.60001,-6.3331 -2.10352,-9.0274 l -0.2207,-1.1875 a 0.2843664,0.2843664 0 0 0 -0.27149,-0.2324 l -1.64062,-0.045 c -0.45037,-0.013 -0.88142,-0.024 -1.21289,-0.035 -0.33147,-0.011 -0.59221,-0.024 -0.60352,-0.025 a 0.2843664,0.2843664 0 0 0 -0.002,0 z"
         id="path5352"
         transform="scale(0.26458333)" />
      <path
         sodipodi:type="inkscape:offset"
         inkscape:radius="0.52924597"
         inkscape:original="M 627.00586 5033.0742 L 625.87891 5035.3906 C 622.62837 5042.0795 618.36958 5047.0168 612.43164 5050.9824 C 603.95131 5056.646 593.67485 5058.6913 584.99023 5056.4414 C 583.79478 5056.1317 582.48893 5055.7395 582.08789 5055.5703 C 581.15884 5055.1787 581.09405 5055.1845 581.33398 5055.6328 C 581.50015 5055.9433 581.40381 5056.0899 580.73047 5056.5566 L 579.92969 5057.1113 L 579.31445 5056.4141 C 575.56281 5052.1695 574.30335 5050.8229 572.89453 5049.5508 C 567.48776 5044.6691 563.73622 5043.051 561.39062 5044.5879 C 558.44036 5046.521 555.82975 5050.8866 555.07422 5055.1523 C 554.77245 5056.8559 554.82334 5060.8353 555.17188 5062.8379 C 555.71732 5065.9719 557.27313 5069.9822 559.04102 5072.8164 C 560.79131 5075.6223 563.70168 5078.7844 565.89258 5080.2598 C 566.74831 5080.8361 567.10188 5080.9551 567.94922 5080.9551 C 569.9409 5080.9551 573.00085 5079.4809 576.60352 5076.7871 C 577.72158 5075.9511 578.70602 5075.2676 578.79102 5075.2676 C 578.87597 5075.2676 579.1915 5075.5901 579.49219 5075.9844 L 580.03906 5076.7012 L 579.39062 5077.2812 L 578.74023 5077.8633 L 582.11328 5090.0488 C 583.96894 5096.7513 586.74058 5106.6235 588.27148 5111.9863 L 591.05469 5121.7363 L 592.03516 5121.9512 C 593.63583 5122.3005 596.78238 5122.7247 599.19336 5122.916 L 599.19336 5122.9121 C 602.53219 5123.177 615.32033 5123.0059 619.5918 5122.6387 C 644.12159 5120.5302 662.34729 5114.6957 671.46875 5106.0312 C 672.81216 5104.7552 674.60519 5102.6093 674.8457 5101.9902 C 674.89759 5101.8566 673.93086 5100.2233 672.69727 5098.3613 C 668.01884 5091.2994 665.00364 5085.8759 660.92188 5077.1738 L 660.48438 5076.2383 L 658.91406 5077.3359 C 658.05112 5077.9393 657.3735 5078.5374 657.4082 5078.6641 C 657.44293 5078.7907 658.18186 5080.5047 659.04883 5082.4746 C 660.35429 5085.4409 660.60373 5086.1703 660.50195 5086.7129 C 660.38768 5087.322 659.80833 5087.7509 652.24609 5092.8301 C 643.25607 5098.8685 644.10818 5098.4719 643.24805 5097.0215 L 642.94922 5096.5156 L 650.66992 5091.3574 L 658.38867 5086.2012 L 657.74219 5084.7051 C 655.92945 5080.5191 655.58014 5079.7754 655.42773 5079.7754 C 655.33666 5079.7754 654.31893 5080.3339 653.16602 5081.0156 C 638.09587 5089.9268 624.01837 5092.7731 612.92188 5089.1523 C 606.90271 5087.1882 601.86383 5083.399 597.55664 5077.5977 L 597.03125 5076.8887 L 597.81445 5076.3711 C 598.24486 5076.0862 598.66485 5075.8574 598.74805 5075.8574 C 598.83126 5075.8597 599.25211 5076.3657 599.68359 5076.9824 C 600.11507 5077.5991 601.4841 5079.1257 602.72461 5080.373 C 606.95963 5084.631 611.49703 5087.0421 617.33594 5088.1367 C 620.01654 5088.6417 626.26831 5088.6404 629.10352 5088.1367 C 631.49926 5087.7111 635.03601 5086.836 637.14453 5086.1484 C 645.94448 5083.2787 656.33907 5077.3392 663.51562 5071.0781 C 665.81629 5069.0709 666.09997 5068.6788 665.44336 5068.418 C 662.97267 5067.4366 642.41244 5058.7447 642.31055 5058.6387 C 642.23633 5058.5614 642.11778 5058.1829 642.04688 5057.7969 C 641.92097 5057.1111 642.06741 5056.9069 648.48047 5048.7754 C 652.08947 5044.1993 654.9802 5040.4304 654.9043 5040.4004 C 654.82844 5040.3707 648.59552 5039.1251 641.05273 5037.6328 C 631.19301 5035.6821 627.35373 5034.8511 627.39453 5034.6738 C 627.4257 5034.5381 627.35132 5034.1221 627.22852 5033.75 L 627.00586 5033.0742 z M 565.75586 5049.459 C 567.76155 5049.8593 569.99493 5051.2985 572.42188 5053.7715 C 574.20221 5055.5855 576.64272 5058.6763 576.63672 5059.1094 C 576.63539 5059.2052 576.32782 5059.4818 575.95312 5059.7246 C 575.57842 5059.9673 575.20349 5060.1641 575.12109 5060.1641 C 575.03868 5060.1627 574.43206 5059.4335 573.77148 5058.5449 C 570.69138 5054.402 567.65854 5051.8934 565.16602 5051.4258 C 563.50398 5051.114 561.79862 5052.4504 560.62695 5054.9863 L 559.9668 5056.416 L 559.08594 5056.1152 C 558.54881 5055.9322 558.20312 5055.6951 558.20312 5055.5098 C 558.20313 5054.889 559.59315 5052.3437 560.45703 5051.3828 C 561.97289 5049.6968 563.75017 5049.0587 565.75586 5049.459 z "
         style="opacity:1;vector-effect:none;fill:#e6e6e6;fill-opacity:1;stroke:none;stroke-width:0.383237;stroke-linecap:butt;stroke-linejoin:miter;stroke-miterlimit:4;stroke-dasharray:none;stroke-dashoffset:0;stroke-opacity:1;paint-order:normal"
         id="path5354"
         transform="scale(0.26458333)"
         d="m 626.99609,5032.5449 a 0.5292989,0.5292989 0 0 0 -0.46679,0.2969 l -1.12696,2.3164 a 0.5292989,0.5292989 0 0 0 0,0 c -3.21586,6.6175 -7.39725,11.4649 -13.26367,15.3828 -8.36505,5.5866 -18.5045,7.5916 -27.01562,5.3867 -1.18102,-0.306 -2.53827,-0.7246 -2.83008,-0.8477 -0.23472,-0.099 -0.4166,-0.1736 -0.57031,-0.2285 -0.15372,-0.055 -0.24307,-0.1147 -0.49414,-0.094 -0.12554,0.01 -0.363,0.1023 -0.47071,0.2988 -0.10771,0.1965 -0.0753,0.3473 -0.0547,0.4375 0.0328,0.1432 0.0822,0.2181 0.13086,0.3066 -0.0363,0.033 -0.12775,0.1267 -0.40429,0.3184 l -0.41407,0.2871 -0.30468,-0.3437 c -3.75378,-4.2471 -5.03068,-5.6148 -6.46094,-6.9063 -2.72699,-2.4622 -5.04671,-4.1204 -7.04492,-4.9824 -1.99821,-0.862 -3.75326,-0.9173 -5.10547,-0.031 -3.13608,2.0549 -5.76565,6.5053 -6.54688,10.916 -0.32824,1.8531 -0.2697,5.7565 0.0977,7.8672 0.56151,3.2264 2.12866,7.2619 3.94141,10.168 1.79522,2.8779 4.70447,6.0537 7.00586,7.6035 0.88375,0.5952 1.45467,0.7852 2.35156,0.7852 2.25284,0 5.32709,-1.5491 8.9707,-4.2735 0.55477,-0.4148 1.07761,-0.7922 1.4668,-1.0625 0.1459,-0.1013 0.24824,-0.1698 0.34961,-0.2363 0.0999,0.1068 0.21699,0.2366 0.33594,0.3926 l 0.25,0.3281 -0.28516,0.2539 -0.65039,0.5821 a 0.5292989,0.5292989 0 0 0 -0.15625,0.5351 l 3.37305,12.1856 c 1.85616,6.7043 4.62652,16.5758 6.1582,21.9414 l 2.7832,9.75 a 0.5292989,0.5292989 0 0 0 0.39649,0.373 l 0.98047,0.2149 c 1.65462,0.361 4.79418,0.7813 7.23046,0.9746 a 0.5292989,0.5292989 0 0 0 0.10938,-0 c 3.54443,0.2683 16.05169,0.096 20.375,-0.2754 24.5905,-2.1137 42.90659,-7.9267 52.19726,-16.7519 0.69388,-0.6591 1.48441,-1.5229 2.14258,-2.3106 0.32909,-0.3938 0.62402,-0.7671 0.85742,-1.0898 0.2334,-0.3227 0.40273,-0.5666 0.50586,-0.8321 0.0864,-0.2224 0.0336,-0.29 0.0195,-0.3515 -0.0141,-0.061 -0.0292,-0.1053 -0.0469,-0.1504 -0.0353,-0.09 -0.0809,-0.1817 -0.13672,-0.291 -0.1116,-0.2187 -0.26878,-0.4995 -0.4668,-0.834 -0.39602,-0.669 -0.94932,-1.549 -1.57031,-2.4863 -4.66735,-7.0452 -7.66317,-12.4313 -11.73828,-21.1192 l -0.4375,-0.9355 a 0.5292989,0.5292989 0 0 0 -0.78125,-0.209 l -1.57031,1.0976 c -0.44546,0.3115 -0.84231,0.6192 -1.13672,0.8789 -0.14721,0.1299 -0.26799,0.2448 -0.36719,0.3594 -0.0496,0.057 -0.0952,0.1136 -0.14062,0.1934 -0.0455,0.08 -0.14467,0.1921 -0.0684,0.4707 0.0274,0.1 0.0375,0.1086 0.0644,0.1758 0.027,0.067 0.061,0.1537 0.10547,0.2597 0.0889,0.2121 0.2122,0.5015 0.36133,0.8477 0.29826,0.6924 0.70081,1.6136 1.13476,2.5996 0.6513,1.4799 1.03735,2.4 1.23828,2.9863 0.20094,0.5863 0.20822,0.7894 0.17969,0.9414 -0.0157,0.084 -0.001,0.082 -0.14453,0.2383 -0.14318,0.1559 -0.44498,0.4153 -0.98633,0.8164 -1.08269,0.8022 -3.1198,2.1815 -6.90039,4.7207 -4.49698,3.0206 -6.57773,4.4446 -7.47656,4.8633 -0.21837,0.1017 -0.35225,0.1334 -0.40234,0.1387 -0.001,-0.011 -0.13765,-0.2503 -0.36915,-0.6406 l -0.043,-0.074 7.30468,-4.8808 7.71875,-5.1563 a 0.5292989,0.5292989 0 0 0 0.19141,-0.6484 l -0.64648,-1.4961 a 0.5292989,0.5292989 0 0 0 0,-0 c -0.90676,-2.0938 -1.44754,-3.3255 -1.78711,-4.0488 -0.16979,-0.3616 -0.28629,-0.5928 -0.39063,-0.7637 -0.0522,-0.085 -0.098,-0.1562 -0.17383,-0.2343 -0.0758,-0.078 -0.21496,-0.2012 -0.44922,-0.2012 -0.14092,0 -0.16059,0.022 -0.19531,0.033 -0.0347,0.012 -0.0622,0.023 -0.0898,0.035 -0.0553,0.024 -0.11315,0.052 -0.18164,0.086 -0.13698,0.068 -0.31097,0.161 -0.51953,0.2754 -0.41713,0.2288 -0.96425,0.5414 -1.54493,0.8847 -14.98835,8.8629 -28.9173,11.6424 -39.81054,8.0879 -5.91072,-1.9287 -10.84855,-5.6347 -15.10352,-11.3652 v -0 l -0.19336,-0.2597 0.31641,-0.209 a 0.5292989,0.5292989 0 0 0 0.002,0 c 0.19425,-0.1286 0.38324,-0.2429 0.5332,-0.3262 0.0148,0.017 0.0213,0.022 0.0371,0.041 0.15625,0.1879 0.36389,0.46 0.57227,0.7579 0.49774,0.7114 1.84413,2.1985 3.09961,3.4609 4.29786,4.3212 8.96023,6.7988 14.88867,7.9101 2.82789,0.5328 8.99005,0.5291 11.95703,0 2.43043,-0.4318 5.96475,-1.3052 8.11328,-2.0059 8.88781,-2.8983 19.31232,-8.8572 26.55469,-15.1757 1.15508,-1.0078 1.80262,-1.5869 2.1543,-2.0723 0.17584,-0.2427 0.33616,-0.5287 0.23437,-0.8867 -0.10178,-0.3581 -0.39469,-0.505 -0.61328,-0.5918 -1.20525,-0.4788 -6.98252,-2.9043 -12.44336,-5.2129 -2.73041,-1.1543 -5.38765,-2.2822 -7.36719,-3.127 -0.98976,-0.4223 -1.80964,-0.7744 -2.38476,-1.0234 -0.28756,-0.1245 -0.51426,-0.2227 -0.66797,-0.291 -0.0313,-0.014 -0.0452,-0.02 -0.0703,-0.031 -0.008,-0.023 -0.0144,-0.036 -0.0234,-0.064 -0.0399,-0.1274 -0.0818,-0.3029 -0.11328,-0.4746 -0.0273,-0.149 -0.0421,-0.1034 0.0215,-0.2637 0.0636,-0.1603 0.25014,-0.4888 0.65235,-1.0527 0.80442,-1.1279 2.44789,-3.2157 5.65429,-7.2813 1.80571,-2.2896 3.43114,-4.3776 4.59766,-5.8984 0.58326,-0.7605 1.0507,-1.3785 1.37109,-1.8125 0.1602,-0.217 0.28346,-0.3869 0.36915,-0.5117 0.0428,-0.062 0.0751,-0.1125 0.10546,-0.1641 0.0152,-0.026 0.0302,-0.047 0.0527,-0.1016 0.0113,-0.027 0.0284,-0.057 0.0391,-0.1523 0.003,-0.024 0.002,-0.089 0.002,-0.09 -2e-5,-4e-4 -0.0272,-0.1402 -0.0273,-0.1406 -1.2e-4,-3e-4 -0.10526,-0.1833 -0.10547,-0.1836 -2e-4,-2e-4 -0.20087,-0.1405 -0.20117,-0.1406 a 0.5292989,0.5292989 0 0 0 -0.002,0 c -0.001,-5e-4 -0.0618,-0.021 -0.0723,-0.023 -0.0105,-0 -0.0181,-0 -0.0273,-0.01 -0.0186,-0 -0.0412,-0.01 -0.0684,-0.016 -0.0543,-0.012 -0.12963,-0.027 -0.22657,-0.047 -0.19387,-0.04 -0.47325,-0.098 -0.83007,-0.1699 -0.71366,-0.1444 -1.73471,-0.3488 -2.99024,-0.5996 -2.51105,-0.5018 -5.95489,-1.1874 -9.72656,-1.9336 -4.92865,-0.9751 -8.353,-1.6704 -10.5332,-2.1426 -1.0901,-0.2361 -1.87026,-0.4175 -2.36328,-0.5469 -0.17534,-0.046 -0.26638,-0.076 -0.36524,-0.1074 -0.007,-0.033 0.003,-0.073 -0.004,-0.1094 -0.0351,-0.1955 -0.0903,-0.4114 -0.16015,-0.623 l -0.22266,-0.6758 a 0.5292989,0.5292989 0 0 0 -0.51172,-0.3633 z m -62.66992,17.3301 c 0.4253,-0.024 0.86593,0.012 1.32617,0.1035 1.84088,0.3674 4.00742,1.7337 6.39258,4.1641 0.86959,0.886 1.91749,2.105 2.73828,3.1445 0.4104,0.5198 0.76608,0.9963 1.00977,1.3574 0.10268,0.1522 0.17158,0.2674 0.22851,0.3672 -0.0958,0.081 -0.21285,0.1771 -0.35546,0.2695 -0.1555,0.1008 -0.30509,0.1852 -0.43164,0.254 -0.0528,-0.06 -0.0955,-0.1052 -0.16407,-0.1875 -0.23539,-0.2826 -0.54963,-0.6815 -0.875,-1.1192 -3.11831,-4.1943 -6.17843,-6.8057 -8.93164,-7.3223 -0.99794,-0.1872 -2.00741,0.1346 -2.87695,0.8165 -0.86954,0.6819 -1.62824,1.7164 -2.24024,3.041 l -0.46093,0.998 -0.42774,-0.1465 a 0.5292989,0.5292989 0 0 0 -0.002,-0 c -0.22187,-0.076 -0.38619,-0.1591 -0.48438,-0.2227 0.0191,-0.066 0.0447,-0.1966 0.1504,-0.4472 0.1338,-0.3172 0.3277,-0.7104 0.54882,-1.1153 0.44226,-0.8098 1.0099,-1.6791 1.38086,-2.0918 1.06706,-1.1868 2.19871,-1.7892 3.47461,-1.8613 z" />
      <path
         sodipodi:type="inkscape:offset"
         inkscape:radius="0.69341117"
         inkscape:original="M 621.60938 4998.2461 C 610.5145 4998.9332 599.143 5001.337 587.6582 5005.4238 C 585.03289 5006.3579 580.60862 5008.0906 579.14062 5008.7598 L 578.55273 5009.0273 L 582.44336 5010.1816 C 586.07641 5011.2599 586.32941 5011.3563 586.25781 5011.627 C 585.73507 5013.6035 585.06996 5016.765 583.66992 5023.9141 C 582.75127 5028.6051 581.96593 5032.5823 581.92383 5032.7539 C 581.83097 5033.1324 581.63097 5033.1299 584.55859 5032.7891 C 586.92348 5032.5137 630.90131 5027.6555 644.2832 5026.1914 C 648.13514 5025.77 651.42481 5025.3983 651.5918 5025.3633 C 651.83061 5025.3135 651.91055 5025.1741 651.96875 5024.7109 C 652.00942 5024.3871 652.17224 5023.0925 652.33008 5021.834 C 652.48792 5020.5754 652.64564 5019.4469 652.68164 5019.3262 C 652.72864 5019.1688 650.96448 5017.7159 646.44141 5014.1934 C 642.97254 5011.4919 640.13191 5009.2328 640.12891 5009.1738 C 640.12357 5009.0598 645.47152 5002.471 645.66797 5002.3496 C 645.73085 5002.3107 647.83229 5003.7123 650.33789 5005.4648 C 654.11818 5008.1088 654.90928 5008.6109 654.98828 5008.4121 C 655.04065 5008.2803 655.35757 5007.2249 655.69336 5006.0664 L 656.30469 5003.9609 L 653.86523 5002.9902 C 651.74873 5002.1484 650.2526 5001.6287 647.61328 5000.8184 C 644.50939 4999.8655 639.4007 4998.9172 634.85352 4998.4492 C 632.0116 4998.1562 624.83216 4998.0466 621.60938 4998.2461 z M 610.98242 5006.9062 C 611.14319 5006.8688 612.10591 5008.0757 614.32812 5011.0996 C 616.04434 5013.435 617.46342 5015.4169 617.48242 5015.5039 C 617.50161 5015.5915 612.02069 5018.0895 605.12305 5021.1348 C 598.30597 5024.1445 592.66138 5026.6292 592.58008 5026.6562 C 592.40235 5026.7155 592.35077 5026.6169 590.60156 5022.9043 C 589.50432 5020.5755 589.25872 5019.9433 589.39844 5019.8145 C 589.67991 5019.555 610.7332 5006.9642 610.98242 5006.9062 z "
         style="opacity:1;vector-effect:none;fill:#e6e6e6;fill-opacity:1;stroke:none;stroke-width:0.27099;stroke-linecap:butt;stroke-linejoin:miter;stroke-miterlimit:4;stroke-dasharray:none;stroke-dashoffset:0;stroke-opacity:1;paint-order:normal"
         id="path5356"
         transform="scale(0.26458333)"
         d="m 628.38086,4997.4668 c -2.55894,-0.039 -5.16356,-0.014 -6.81445,0.088 -11.16529,0.6914 -22.60054,3.1103 -34.14063,7.2168 -2.64865,0.9424 -7.03686,2.6575 -8.57226,3.3574 l -0.5879,0.2676 a 0.69348051,0.69348051 0 0 0 0.0898,1.2949 l 3.89062,1.1543 c 1.81533,0.5388 2.79506,0.8381 3.24805,1.0098 0.008,0 5.5e-4,0 0.008,0 -0.52378,2.0229 -1.1577,5.0078 -2.51172,11.9218 -0.45926,2.3452 -0.8868,4.5118 -1.20312,6.1133 -0.15816,0.8008 -0.28908,1.4603 -0.38281,1.9297 -0.0937,0.4695 -0.1726,0.8383 -0.1543,0.7637 -0.005,0.019 -0.0152,0.053 -0.0332,0.1269 -0.018,0.074 -0.0685,0.2065 0.002,0.4473 0.0704,0.2409 0.33112,0.4558 0.49609,0.5137 0.16498,0.058 0.27262,0.057 0.38477,0.059 0.44858,0.01 1.07725,-0.086 2.53906,-0.2559 2.31448,-0.2695 46.3404,-5.1337 59.72071,-6.5976 1.92666,-0.2108 3.711,-0.4085 5.0371,-0.5586 0.66305,-0.075 1.21134,-0.139 1.60547,-0.1856 0.19707,-0.023 0.35589,-0.042 0.47266,-0.057 0.11677,-0.015 0.13579,-0.013 0.25977,-0.039 0.23077,-0.049 0.56644,-0.2448 0.71484,-0.5019 0.14886,-0.258 0.17411,-0.4802 0.20703,-0.7422 0.0406,-0.3235 0.20347,-1.6183 0.36133,-2.877 0.0786,-0.6264 0.15769,-1.22 0.2207,-1.6699 0.0315,-0.225 0.0587,-0.4146 0.0801,-0.5508 0.0211,-0.1346 0.0612,-0.2871 0.0273,-0.1738 v -0 c 0.10698,-0.3621 -0.0259,-0.4988 -0.0742,-0.5839 -0.0485,-0.085 -0.0882,-0.1336 -0.13086,-0.1836 -0.0852,-0.1 -0.18163,-0.1943 -0.30664,-0.3106 -0.25,-0.2325 -0.61166,-0.543 -1.11718,-0.959 -1.01106,-0.8318 -2.58609,-2.077 -4.84961,-3.8398 -1.7329,-1.3496 -3.30783,-2.5885 -4.44922,-3.4961 -0.56979,-0.4531 -1.03124,-0.8235 -1.34766,-1.082 0.12821,-0.1654 0.25437,-0.3295 0.4375,-0.5606 0.50091,-0.6321 1.17436,-1.4699 1.85352,-2.3066 0.67915,-0.8368 1.36446,-1.6734 1.89062,-2.3067 0.22682,-0.2729 0.40375,-0.4848 0.55664,-0.664 0.22995,0.1456 0.51687,0.3314 0.89258,0.582 0.84005,0.5604 1.9909,1.3469 3.24024,2.2207 1.89186,1.3232 3.03268,2.1094 3.73828,2.5566 0.3528,0.2237 0.58572,0.3621 0.8125,0.4571 0.11339,0.047 0.22037,0.098 0.43164,0.098 0.21127,-7e-4 0.60727,-0.2206 0.70898,-0.4765 0.0835,-0.2101 0.13698,-0.4156 0.26563,-0.8438 0.12865,-0.4281 0.29248,-0.9832 0.46094,-1.5644 l 0.61132,-2.1055 a 0.69348051,0.69348051 0 0 0 -0.41015,-0.8379 l -2.43946,-0.9707 c -2.1297,-0.847 -3.65613,-1.3763 -6.30468,-2.1895 -3.18457,-0.9776 -8.30312,-1.9241 -12.89258,-2.3964 -1.47144,-0.1517 -3.98403,-0.254 -6.54297,-0.293 z m -17.49414,10.2852 c 0.12012,0.1347 0.24868,0.2789 0.45312,0.5351 0.52613,0.6595 1.32081,1.7137 2.42969,3.2227 0.85669,1.1657 1.63974,2.2441 2.20899,3.039 0.20877,0.2916 0.35023,0.4943 0.49414,0.6992 -0.0889,0.043 -0.13373,0.067 -0.24024,0.1172 -0.61259,0.2911 -1.50992,0.7077 -2.62304,1.2149 -2.22625,1.0144 -5.31882,2.3981 -8.76563,3.9199 -3.40835,1.5048 -6.52377,2.8783 -8.79687,3.8789 -1.13656,0.5003 -2.06242,0.9079 -2.70899,1.1914 -0.24506,0.1075 -0.4095,0.1778 -0.57031,0.2481 -0.23871,-0.4559 -0.67872,-1.383 -1.53906,-3.209 -0.54681,-1.1606 -0.88068,-1.8992 -1.04688,-2.3262 -0.0267,-0.069 -0.0231,-0.071 -0.041,-0.123 0.16094,-0.1005 0.35432,-0.22 0.61719,-0.3809 0.60079,-0.3678 1.44714,-0.8818 2.45508,-1.4902 2.01588,-1.217 4.6815,-2.8149 7.3457,-4.4082 2.66421,-1.5934 5.32803,-3.1813 7.33985,-4.3731 1.00591,-0.5959 1.84766,-1.0925 2.44531,-1.4414 0.23138,-0.1351 0.39093,-0.2272 0.54297,-0.3144 z" />
      <path
         sodipodi:type="inkscape:offset"
         inkscape:radius="0.53738284"
         inkscape:original="M 660.05469 4954.1465 L 658.0918 4954.1699 L 621.61328 4966.8574 C 601.54938 4973.8355 576.35225 4982.5948 565.61914 4986.3242 C 554.88603 4990.0535 546.07476 4993.1292 546.03906 4993.1582 C 546.0034 4993.1874 550.01912 5003.9408 554.96289 5017.0547 C 561.4493 5034.2606 564.03486 5040.9023 564.25 5040.9023 C 564.57621 5040.9055 567.00233 5040.255 567.80664 5039.9492 L 568.30859 5039.7578 L 568.06445 5038.4199 C 567.62045 5035.9879 567.53103 5034.6291 567.81445 5034.6191 C 568.68735 5034.59 579.57105 5033.294 579.65625 5033.209 C 579.71375 5033.1515 580.63522 5028.6593 581.70508 5023.2266 C 582.77494 5017.7939 583.68707 5013.2047 583.73047 5013.0293 C 583.79542 5012.767 582.87268 5012.4398 578.5293 5011.1816 C 575.62511 5010.3404 573.20429 5009.5811 573.15039 5009.4941 C 572.94673 5009.1646 580.443 5005.8445 585.90625 5003.8457 C 601.78451 4998.0367 618.54294 4995.2783 632.40039 4996.1914 C 653.28947 4997.5678 669.55625 5006.1854 681.35547 5022.127 L 683.0625 5024.4336 L 683.22852 5022.5195 C 683.46769 5019.7541 683.39823 5007.8384 683.12109 5003.9336 C 681.21294 4977.0494 674.89925 4959.5753 665.54492 4955.2871 C 663.58699 4954.3896 662.2921 4954.1205 660.05469 4954.1465 z "
         style="opacity:1;vector-effect:none;fill:#e6e6e6;fill-opacity:1;stroke:none;stroke-width:0.383237;stroke-linecap:butt;stroke-linejoin:miter;stroke-miterlimit:4;stroke-dasharray:none;stroke-dashoffset:0;stroke-opacity:1;paint-order:normal"
         id="path5358"
         transform="scale(0.26458333)"
         d="m 660.04883,4953.6094 -1.96289,0.023 a 0.53743658,0.53743658 0 0 0 -0.16992,0.029 l -36.47852,12.6875 c -20.06384,6.9781 -45.26115,15.7374 -55.99414,19.4668 -5.36675,1.8647 -10.25346,3.5659 -13.80274,4.8047 -1.77463,0.6194 -3.21547,1.1237 -4.21484,1.4746 -0.49968,0.1755 -0.88787,0.3117 -1.1543,0.4063 -0.13321,0.047 -0.2354,0.085 -0.30664,0.1113 -0.0356,0.013 -0.064,0.023 -0.0859,0.031 -0.011,0 -0.0197,0.01 -0.0312,0.012 -0.006,0 -0.0117,0 -0.0234,0.01 -0.006,0 -0.0136,0 -0.0273,0.012 -0.0137,0.01 -0.0956,0.062 -0.0957,0.062 a 0.53743658,0.53743658 0 0 0 -0.002,0 c -1.4e-4,1e-4 -0.19725,0.398 -0.19727,0.3984 -10e-6,5e-4 0.001,0.075 0.004,0.094 0.005,0.037 0.0106,0.05 0.0137,0.062 0.006,0.025 0.0107,0.039 0.0156,0.055 0.01,0.032 0.0199,0.065 0.0351,0.1093 0.0304,0.089 0.0743,0.2145 0.13281,0.377 0.11698,0.325 0.29103,0.799 0.51563,1.4082 0.4492,1.2185 1.10324,2.9746 1.91211,5.1406 1.61774,4.332 3.85803,10.3001 6.33008,16.8574 3.24347,8.6037 5.51042,14.5657 6.99609,18.3809 0.74284,1.9076 1.2903,3.2775 1.66797,4.1777 0.18884,0.4502 0.33521,0.7817 0.44727,1.0137 0.056,0.116 0.10047,0.2055 0.15039,0.2871 0.025,0.041 0.0496,0.08 0.0957,0.1328 0.0459,0.053 0.081,0.202 0.42969,0.2032 0.001,0 6.4e-4,0 0.002,0 0.26253,0 0.40579,-0.05 0.69922,-0.1172 0.29582,-0.068 0.66026,-0.1602 1.03906,-0.2618 0.75761,-0.203 1.55816,-0.4376 2.00977,-0.6093 l 0.50195,-0.1914 a 0.53743658,0.53743658 0 0 0 0.33789,-0.5977 l -0.24414,-1.3379 c -0.21997,-1.2049 -0.35078,-2.1423 -0.39063,-2.748 -0.0146,-0.2222 -0.006,-0.3394 0,-0.4571 0.38997,-0.029 0.91961,-0.081 1.87696,-0.1875 1.14662,-0.1271 2.59217,-0.2936 4.01367,-0.4628 1.4215,-0.1693 2.81861,-0.3404 3.86719,-0.4747 0.52429,-0.067 0.96135,-0.1256 1.27344,-0.1699 0.15604,-0.022 0.27995,-0.041 0.37304,-0.057 0.0465,-0.01 0.0852,-0.013 0.12305,-0.021 0.0189,-0 0.0355,-0.01 0.0645,-0.016 0.0145,-0 0.0327,-0.01 0.0625,-0.021 0.0149,-0.01 0.0316,-0.014 0.0586,-0.029 0.027,-0.015 0.1188,-0.09 0.11914,-0.09 a 0.53743658,0.53743658 0 0 0 0.002,0 c 2.2e-4,-2e-4 0.0473,-0.055 0.0606,-0.074 0.0132,-0.019 0.0224,-0.034 0.0293,-0.047 0.0138,-0.025 0.0198,-0.04 0.0254,-0.053 0.0113,-0.026 0.0168,-0.041 0.0215,-0.055 0.009,-0.028 0.0149,-0.048 0.0215,-0.072 0.0132,-0.048 0.0278,-0.1071 0.0449,-0.1797 0.0343,-0.1452 0.0788,-0.3487 0.13477,-0.6074 0.11194,-0.5176 0.26726,-1.2545 0.45312,-2.1602 0.37173,-1.8114 0.86915,-4.2942 1.4043,-7.0117 0.53488,-2.7161 1.02938,-5.2205 1.39649,-7.0684 0.18355,-0.9239 0.33515,-1.6835 0.44336,-2.2226 0.0541,-0.2696 0.0979,-0.4849 0.1289,-0.6368 0.031,-0.1518 0.0583,-0.2743 0.0508,-0.2441 0.0469,-0.1895 -0.0233,-0.4274 -0.11914,-0.5547 -0.0958,-0.1272 -0.19528,-0.1944 -0.30078,-0.2578 -0.211,-0.1267 -0.47245,-0.2322 -0.86914,-0.373 -0.79338,-0.2818 -2.10932,-0.677 -4.2832,-1.3067 -1.44892,-0.4197 -2.77867,-0.8189 -3.74805,-1.123 -0.2536,-0.08 -0.40182,-0.1323 -0.60156,-0.1973 0.0812,-0.043 0.11312,-0.066 0.20508,-0.1133 0.7432,-0.3805 1.82586,-0.8873 3.08593,-1.4453 2.52016,-1.116 5.75476,-2.4438 8.47071,-3.4375 15.81523,-5.7859 32.5152,-8.5276 46.27343,-7.6211 20.76051,1.3679 36.84479,9.8926 48.5586,25.7188 l 1.70703,2.3066 a 0.53743658,0.53743658 0 0 0 0.9668,-0.2734 l 0.16601,-1.9141 c 0.25136,-2.9063 0.17474,-14.6944 -0.10742,-18.6699 -0.95646,-13.4757 -3.01374,-24.606 -6.02539,-32.9414 -3.01166,-8.3355 -6.97444,-13.916 -11.86133,-16.1563 -2.00253,-0.9179 -3.4378,-1.216 -5.7207,-1.1894 z" />
      <path
         sodipodi:nodetypes="ccccccsccc"
         inkscape:connector-curvature="0"
         id="path5360"
         d="m 173.99354,1323.7876 c -0.67301,2.0503 -1.08733,4.0842 -1.25805,6.0998 m 0.26906,6.3977 c 0.19927,1.1821 0.48011,2.3569 0.83927,3.524 m 1.06323,2.9108 c 1.01915,2.4103 2.36831,4.7854 4.01796,7.1212 -2.60034,4.4449 -12.22384,5.9247 -18.25182,5.9383 -2.0752,0 -3.72427,-0.1644 -4.51397,-0.4461 -0.39508,-1.3744 -0.79145,-2.7504 -1.18724,-4.1253 l -2.17873,-7.8512"
         style="opacity:1;vector-effect:none;fill:none;fill-opacity:1;stroke:#333333;stroke-width:0.517;stroke-linecap:butt;stroke-linejoin:miter;stroke-miterlimit:4;stroke-dasharray:none;stroke-dashoffset:0;stroke-opacity:1;paint-order:normal" />
      <path
         sodipodi:nodetypes="ccccccc"
         inkscape:connector-curvature="0"
         id="path5362"
         d="m 153.61036,1331.9716 c 0.61158,-2.968 1.13996,-5.812 1.16842,-5.8836 -0.14136,-0.046 -2.47719,-0.7232 -2.47719,-0.7232 0,0 19.35462,-9.7607 28.51184,4.6703 0.6466,-0.022 0.94661,-20.895 -6.85922,-19.477 l -29.8618,10.3812 5.08682,13.4812"
         style="opacity:1;vector-effect:none;fill:none;fill-opacity:1;stroke:#333333;stroke-width:0.517;stroke-linecap:butt;stroke-linejoin:miter;stroke-miterlimit:4;stroke-dasharray:none;stroke-dashoffset:0;stroke-opacity:1;paint-order:normal" />
      <path
         sodipodi:nodetypes="ccccc"
         inkscape:connector-curvature="0"
         id="path5364"
         d="m 170.84537,1323.5231 5.19566,3.633 -1.89523,1.925 -4.78641,-3.737 z"
         style="opacity:1;vector-effect:none;fill:#333333;fill-opacity:1;stroke:none;stroke-width:0.517;stroke-linecap:butt;stroke-linejoin:bevel;stroke-miterlimit:4;stroke-dasharray:none;stroke-dashoffset:0;stroke-opacity:1;paint-order:normal" />
      <path
         sodipodi:nodetypes="ccccc"
         inkscape:connector-curvature="0"
         id="path5366"
         d="m 155.90496,1328.1859 5.77841,-3.4675 1.71078,2.3176 -6.6449,2.941 z"
         style="opacity:1;vector-effect:none;fill:#333333;fill-opacity:1;stroke:none;stroke-width:0.517;stroke-linecap:butt;stroke-linejoin:bevel;stroke-miterlimit:4;stroke-dasharray:none;stroke-dashoffset:0;stroke-opacity:1;paint-order:normal" />
      <path
         sodipodi:nodetypes="cccccc"
         inkscape:connector-curvature="0"
         id="path5368"
         d="m 166.29385,1331.9868 c -0.17908,-0.4564 -0.29201,-0.9317 -0.32541,-1.4162 -2.62309,8.8852 -14.81059,9.7529 -15.49811,1.7574 v -10e-5 l 27.83261,-3.0794 c -0.68269,5.6391 -3.74247,7.3141 -6.64471,6.8797"
         style="opacity:1;vector-effect:none;fill:none;fill-opacity:1;stroke:#333333;stroke-width:0.517;stroke-linecap:butt;stroke-linejoin:miter;stroke-miterlimit:4;stroke-dasharray:none;stroke-dashoffset:0;stroke-opacity:1;paint-order:normal" />
      <path
         style="opacity:1;vector-effect:none;fill:#333333;fill-opacity:1;stroke:none;stroke-width:0.313532;stroke-linecap:butt;stroke-linejoin:bevel;stroke-miterlimit:4;stroke-dasharray:none;stroke-dashoffset:0;stroke-opacity:1;paint-order:normal"
         clip-path="none"
         d="m 183.19529,351.18141 c 0.14162,0.19918 0.2249,0.44273 0.2249,0.70574 0,0.67335 -0.54585,1.2192 -1.2192,1.2192 -0.67335,0 -1.2192,-0.54585 -1.2192,-1.2192 0,-0.2012 0.0487,-0.39103 0.13505,-0.5583"
         id="path5370"
         inkscape:connector-curvature="0"
         sodipodi:nodetypes="ccccc"
         transform="matrix(1.537607,-0.05188976,-0.00212593,1.7684353,-104.44497,718.10929)" />
      <path
         sodipodi:nodetypes="ccccc"
         inkscape:connector-curvature="0"
         id="path5372"
         d="m 174.00352,351.73965 c 0.0995,0.16993 0.15581,0.36337 0.15578,0.56846 -1.1e-4,0.67335 -0.60752,1.21739 -1.35671,1.21517 -0.74917,-0.002 -1.35641,-0.54989 -1.35631,-1.22323 2e-5,-0.13451 0.0243,-0.26386 0.0691,-0.38473"
         clip-path="none"
         style="opacity:1;vector-effect:none;fill:#333333;fill-opacity:1;stroke:none;stroke-width:0.313532;stroke-linecap:butt;stroke-linejoin:bevel;stroke-miterlimit:4;stroke-dasharray:none;stroke-dashoffset:0;stroke-opacity:1;paint-order:normal"
         transform="matrix(1.537607,-0.05188976,-0.00212593,1.7684353,-104.44497,718.10929)" />
      <path
         sodipodi:nodetypes="ccccc"
         inkscape:connector-curvature="0"
         id="path5374"
         d="m 166.03824,1331.8895 7.77693,1.5354 -3.76147,4.7755 6.47603,2.7124 c 0.96391,0.1484 -12.07102,11.2039 -18.32566,2.2079"
         style="opacity:1;vector-effect:none;fill:none;fill-opacity:1;stroke:#333333;stroke-width:0.517;stroke-linecap:butt;stroke-linejoin:miter;stroke-miterlimit:4;stroke-dasharray:none;stroke-dashoffset:0;stroke-opacity:1;paint-order:normal" />
      <path
         inkscape:connector-curvature="0"
         id="path5376"
         d="m 173.53097,1343.5089 1.01585,2.3149 -4.26802,2.8548"
         style="opacity:1;vector-effect:none;fill:none;fill-opacity:1;stroke:#333333;stroke-width:0.517;stroke-linecap:butt;stroke-linejoin:bevel;stroke-miterlimit:4;stroke-dasharray:none;stroke-dashoffset:0;stroke-opacity:1;paint-order:normal"
         sodipodi:nodetypes="ccc" />
      <path
         sodipodi:nodetypes="cccsssc"
         inkscape:connector-curvature="0"
         id="path5378"
         d="m 150.66999,1333.3446 c 0,0 -2.37436,1.0046 -4.68021,0.5708 -0.88359,1.2061 -0.74129,2.2915 -0.61641,3.3789 0,0 0.61074,-0.3578 1.48717,-0.7815 0.60532,-0.2926 1.03545,-1.9263 1.88063,-2.1602 0.90101,-0.2494 1.59508,0.8589 2.21784,0.8065 0.17715,-0.015 0.34785,-0.019 0.51004,-0.011"
         style="opacity:1;vector-effect:none;fill:#333333;fill-opacity:1;stroke:none;stroke-width:0.517;stroke-linecap:butt;stroke-linejoin:bevel;stroke-miterlimit:4;stroke-dasharray:none;stroke-dashoffset:0;stroke-opacity:1" />
      <path
         sodipodi:nodetypes="cssc"
         style="opacity:1;vector-effect:none;fill:none;fill-opacity:1;stroke:#333333;stroke-width:0.517;stroke-linecap:butt;stroke-linejoin:bevel;stroke-miterlimit:4;stroke-dasharray:none;stroke-dashoffset:0;stroke-opacity:1;paint-order:normal"
         d="m 153.63678,1337.8662 c 0,0 -3.59937,-4.6901 -5.31708,-3.3505 -3.17725,2.4779 -1.82433,7.7768 1.38743,9.9686 1.06456,0.7265 3.59018,-1.4687 3.59018,-1.4687"
         id="path5380"
         inkscape:connector-curvature="0" />
      <path
         inkscape:connector-curvature="0"
         id="path5382"
         d="m 152.36809,1338.7113 c 0,0 -3.07018,-4.8456 -4.45355,-0.9728"
         style="opacity:1;vector-effect:none;fill:none;fill-opacity:1;stroke:#333333;stroke-width:0.517;stroke-linecap:butt;stroke-linejoin:bevel;stroke-miterlimit:4;stroke-dasharray:none;stroke-dashoffset:0;stroke-opacity:1;paint-order:normal" />
    </g>
  </g>
</svg>
