<?xml version="1.0" encoding="UTF-8" standalone="no"?>
<svg
   xmlns:dc="http://purl.org/dc/elements/1.1/"
   xmlns:cc="http://creativecommons.org/ns#"
   xmlns:rdf="http://www.w3.org/1999/02/22-rdf-syntax-ns#"
   xmlns:svg="http://www.w3.org/2000/svg"
   xmlns="http://www.w3.org/2000/svg"
   xmlns:sodipodi="http://sodipodi.sourceforge.net/DTD/sodipodi-0.dtd"
   xmlns:inkscape="http://www.inkscape.org/namespaces/inkscape"
   width="46.214451mm"
   height="55.551834mm"
   viewBox="0 0 46.214451 55.551834"
   version="1.1"
   id="svg236"
   inkscape:version="1.0.2 (e86c870879, 2021-01-15, custom)"
   sodipodi:docname="head_girl.svg">
  <defs
     id="defs230" />
  <sodipodi:namedview
     id="base"
     pagecolor="#ffffff"
     bordercolor="#666666"
     borderopacity="1.0"
     inkscape:pageopacity="0.0"
     inkscape:pageshadow="2"
     inkscape:zoom="0.35"
     inkscape:cx="53.048684"
     inkscape:cy="79.160453"
     inkscape:document-units="mm"
     inkscape:current-layer="layer1"
     inkscape:document-rotation="0"
     showgrid="false"
     fit-margin-top="0"
     fit-margin-left="0"
     fit-margin-right="0"
     fit-margin-bottom="0"
     inkscape:window-width="1431"
     inkscape:window-height="1208"
     inkscape:window-x="160"
     inkscape:window-y="1350"
     inkscape:window-maximized="0" />
  <metadata
     id="metadata233">
    <rdf:RDF>
      <cc:Work
         rdf:about="">
        <dc:format>image/svg+xml</dc:format>
        <dc:type
           rdf:resource="http://purl.org/dc/dcmitype/StillImage" />
        <dc:title></dc:title>
      </cc:Work>
    </rdf:RDF>
  </metadata>
  <g
     inkscape:label="Layer 1"
     inkscape:groupmode="layer"
     id="layer1"
     transform="translate(-91.797536,-127.22213)">
    <path
       id="path5418"
       d="m 108.30508,127.31363 c -1.31618,1.65683 -1.85813,3.11237 -0.71228,5.24922 -0.27873,-0.0929 -1.08392,-0.24775 -1.98202,0.26324 0,0 1.81169,0.96003 1.76524,2.81817 -0.30969,3.56142 -0.99101,9.07388 -2.41558,15.03539 -0.94455,0.63486 -2.33815,1.71877 -3.70078,1.76523 0.74325,0.54195 1.8891,1.03745 2.94204,1.16133 0,0.0155 0,0.0155 0,0.0155 -2.2917,8.22223 -6.069901,16.80062 -12.31013,21.98791 3.282703,0.27872 8.4545,1.11488 13.09984,-3.40658 -1.44005,4.42855 -4.45952,9.94101 -7.525442,10.31264 0,0 5.605372,0.32517 9.445512,-0.13936 4.22725,-0.66583 8.08288,-1.99749 11.58236,-4.02596 4.5834,-2.92656 8.08288,-7.27768 10.6533,-12.85208 l -0.0465,-0.0774 c 1.6878,-1.85814 2.75623,-4.16532 3.42206,-6.42605 0,0 0.062,-0.37162 0.062,-0.38711 7.41705,-4.39758 4.95502,-17.59033 4.62985,-18.70521 -15.3296,-2.80268 -22.0963,-5.21826 -25.90548,-6.79767 -1.84264,-0.83616 -3.32915,-3.7782 -3.00398,-5.79118 z"
       style="fill:#cccccc;fill-opacity:1;fill-rule:nonzero;stroke:#333333;stroke-width:0.294204px;stroke-linecap:butt;stroke-linejoin:bevel;stroke-miterlimit:4;stroke-dasharray:none;stroke-opacity:1"
       inkscape:connector-curvature="0" />
    <path
       id="path5420"
       d="m 114.09626,168.1461 c 19.16974,4.44404 19.34007,-11.92302 20.76464,-23.24215 -6.90606,-3.93305 -19.58782,-1.95104 -25.30158,5.4815 l -1.16133,5.40407 3.20527,11.69076 z"
       style="fill:#cccccc;fill-opacity:1;fill-rule:nonzero;stroke:none;stroke-width:0.193557"
       inkscape:connector-curvature="0" />
    <path
       id="path5422"
       d="m 114.09626,168.1461 c 19.16974,4.44404 19.34007,-11.92302 20.76464,-23.24215 -6.90606,-3.93305 -19.58782,-1.95104 -25.30158,5.4815 l -1.16133,5.40407 3.20527,11.69076"
       style="fill:none;stroke:#333333;stroke-width:0.294204px;stroke-linecap:butt;stroke-linejoin:bevel;stroke-miterlimit:4;stroke-dasharray:none;stroke-opacity:1"
       inkscape:connector-curvature="0" />
    <path
       id="path5424"
       d="m 123.3095,155.55725 c 0,1.26973 -0.0155,1.73426 0.77423,3.17431"
       style="fill:none;stroke:#000000;stroke-width:0.201298px;stroke-linecap:butt;stroke-linejoin:miter;stroke-miterlimit:4;stroke-dasharray:none;stroke-opacity:1"
       inkscape:connector-curvature="0" />
    <path
       id="path5426"
       d="m 126.31349,160.35743 c 0.10839,-0.0774 -0.37163,-1.98201 -0.99101,-2.22976 0.062,-0.0929 -0.55743,0.15484 -1.23875,0.54195 -0.57293,0.32518 -1.1923,0.75874 -1.45554,1.14585"
       style="fill:none;stroke:#000000;stroke-width:0.201298px;stroke-linecap:butt;stroke-linejoin:miter;stroke-miterlimit:4;stroke-dasharray:none;stroke-opacity:1"
       inkscape:connector-curvature="0" />
    <path
       id="path5428"
       d="m 124.16115,153.32749 c -0.92907,2.02846 -0.10839,4.28919 1.84265,5.03245 1.95104,0.74325 4.28919,-0.27872 5.21825,-2.30719 0.74326,-1.62586 0.35615,-3.39109 -0.82067,-4.41307 z"
       style="fill:#ffffff;fill-opacity:1;fill-rule:nonzero;stroke:none;stroke-width:0.193557"
       inkscape:connector-curvature="0" />
    <path
       id="path5430"
       d="m 124.16115,153.32749 c -0.92907,2.02846 -0.10839,4.28919 1.84265,5.03245 1.95104,0.74325 4.28919,-0.27872 5.21825,-2.30719 0.74326,-1.62586 0.35615,-3.39109 -0.82067,-4.41307"
       style="fill:none;stroke:#000000;stroke-width:0.201298px;stroke-linecap:butt;stroke-linejoin:miter;stroke-miterlimit:4;stroke-dasharray:none;stroke-opacity:1"
       inkscape:connector-curvature="0" />
    <path
       id="path5432"
       d="m 128.68261,156.02178 c -0.55744,0.94456 -0.6039,1.90459 -0.10839,2.16783 0.4955,0.24775 1.34714,-0.29421 1.90458,-1.23876 0.55744,-0.94455 0.60389,-1.90459 0.1084,-2.16782 -0.4955,-0.24775 -1.34715,0.2942 -1.90459,1.23875 z"
       style="fill:#00618b;fill-opacity:1;fill-rule:nonzero;stroke:#000000;stroke-width:0.216782px;stroke-linecap:butt;stroke-linejoin:miter;stroke-miterlimit:4;stroke-dasharray:none;stroke-opacity:1"
       inkscape:connector-curvature="0" />
    <path
       id="path5434"
       d="m 119.94938,155.54177 c -0.5884,0.92906 -0.66583,1.90458 -0.18581,2.1833 0.48002,0.27872 1.33166,-0.24775 1.92007,-1.17681 0.58841,-0.92907 0.68132,-1.90459 0.2013,-2.18331 -0.48002,-0.26324 -1.34715,0.26323 -1.93556,1.17682 z"
       style="fill:#00618b;fill-opacity:1;fill-rule:nonzero;stroke:#000000;stroke-width:0.216782px;stroke-linecap:butt;stroke-linejoin:miter;stroke-miterlimit:4;stroke-dasharray:none;stroke-opacity:1"
       inkscape:connector-curvature="0" />
    <path
       id="path5436"
       d="m 125.07473,164.01176 c 0,0 -7.68028,4.64533 -11.0404,-4.93954"
       style="fill:none;stroke:#000000;stroke-width:0.201298px;stroke-linecap:butt;stroke-linejoin:miter;stroke-miterlimit:4;stroke-dasharray:none;stroke-opacity:1"
       inkscape:connector-curvature="0" />
    <path
       id="path5438"
       d="m 125.07473,164.01176 c 0,0 -7.68028,4.64533 -11.0404,-4.93954"
       style="fill:none;stroke:#333333;stroke-width:0.201298px;stroke-linecap:butt;stroke-linejoin:miter;stroke-miterlimit:4;stroke-dasharray:none;stroke-opacity:1"
       inkscape:connector-curvature="0" />
    <path
       id="path5440"
       d="m 122.56625,151.98034 -0.82067,0.83616 -4.93954,-4.78469 0.57292,-0.41808 z"
       style="fill:#000000;fill-opacity:1;fill-rule:nonzero;stroke:#000000;stroke-width:0.201298px;stroke-linecap:butt;stroke-linejoin:miter;stroke-miterlimit:4;stroke-dasharray:none;stroke-opacity:1"
       inkscape:connector-curvature="0" />
    <path
       id="path5442"
       d="m 125.09021,151.34548 6.65831,-2.18331 0.20131,0.52648 -6.54993,2.35363 z"
       style="fill:#000000;fill-opacity:1;fill-rule:nonzero;stroke:#000000;stroke-width:0.201298px;stroke-linecap:butt;stroke-linejoin:miter;stroke-miterlimit:4;stroke-dasharray:none;stroke-opacity:1"
       inkscape:connector-curvature="0" />
    <path
       id="path5444"
       d="m 105.62627,148.65119 c 0.91358,-4.22726 2.05943,-12.12432 1.92007,-13.39405 -0.062,-0.71228 -0.38711,-1.33166 -0.94455,-1.90458 -0.2942,-0.29421 -0.4955,-0.55744 -0.46453,-0.6039 0.0465,-0.031 0.35614,-0.0774 0.6968,-0.10839 0.57292,-0.031 0.68132,-0.0155 1.13036,0.29421 0.63486,0.40259 1.31618,1.16133 1.3936,1.51747 0.031,0.15485 0.0929,0.26324 0.13936,0.26324 0.0464,0 0.15484,0.18581 0.21678,0.40259 0.0929,0.29421 0.10839,1.17682 0.0309,3.54594 -0.10839,3.14334 -0.21678,4.24274 -0.77422,7.52544 l -0.21678,1.23876 -0.78971,0.72777 c -0.7897,0.72776 -2.50847,2.10588 -2.63236,2.10588 -0.031,0 0.1084,-0.72777 0.29421,-1.61038 z"
       style="fill:none;stroke:none;stroke-width:0.193557"
       inkscape:connector-curvature="0" />
    <path
       id="path5446"
       d="m 131.68659,154.72109 c -0.062,2.19879 -1.90458,3.99499 -4.08789,3.99499 -2.18331,0 -3.90208,-1.7962 -3.84015,-3.99499 0.0774,-2.21427 1.90459,-4.01047 4.0879,-4.01047 2.1833,0 3.90207,1.7962 3.84014,4.01047 z"
       style="fill:#ffffff;fill-opacity:1;fill-rule:nonzero;stroke:#000000;stroke-width:0.216782px;stroke-linecap:butt;stroke-linejoin:miter;stroke-miterlimit:4;stroke-dasharray:none;stroke-opacity:1"
       inkscape:connector-curvature="0" />
    <path
       id="path5448"
       d="m 122.34947,155.26305 c -0.4955,2.16782 -3.00398,3.54593 -5.60536,3.06592 -2.61688,-0.48002 -4.32017,-2.61687 -3.82466,-4.7847 0.48001,-2.16782 3.00398,-3.53045 5.60536,-3.06592 2.60139,0.48002 4.32016,2.61687 3.82466,4.7847 z"
       style="fill:#ffffff;fill-opacity:1;fill-rule:nonzero;stroke:#000000;stroke-width:0.232267px;stroke-linecap:butt;stroke-linejoin:miter;stroke-miterlimit:4;stroke-dasharray:none;stroke-opacity:1"
       inkscape:connector-curvature="0" />
    <path
       id="path5450"
       d="m 128.68261,156.02178 c -0.55744,0.94456 -0.6039,1.90459 -0.10839,2.16783 0.4955,0.24775 1.34714,-0.29421 1.90458,-1.23876 0.55744,-0.94455 0.60389,-1.90459 0.1084,-2.16782 -0.4955,-0.24775 -1.34715,0.2942 -1.90459,1.23875 z"
       style="fill:#999999;fill-opacity:1;fill-rule:nonzero;stroke:none;stroke-width:0.216782px;stroke-linecap:butt;stroke-linejoin:miter;stroke-miterlimit:4;stroke-dasharray:none;stroke-opacity:1"
       inkscape:connector-curvature="0" />
    <path
       id="path5452"
       d="m 119.94938,155.54177 c -0.5884,0.92906 -0.66583,1.90458 -0.18581,2.1833 0.48002,0.27872 1.33166,-0.24775 1.92007,-1.17681 0.58841,-0.92907 0.68132,-1.90459 0.2013,-2.18331 -0.48002,-0.26324 -1.34715,0.26323 -1.93556,1.17682 z"
       style="fill:#999999;fill-opacity:1;fill-rule:nonzero;stroke:none;stroke-width:0.216782px;stroke-linecap:butt;stroke-linejoin:miter;stroke-miterlimit:4;stroke-dasharray:none;stroke-opacity:1"
       inkscape:connector-curvature="0" />
    <path
       id="path5454"
       d="m 113.10525,138.97341 c -0.82067,8.57838 -11.08686,13.78116 -11.84559,13.47147 13.09984,6.48798 23.76862,-5.68279 25.88999,-7.29318 -0.18582,5.10987 -2.55494,6.79767 -4.33564,8.25321 5.58988,0 8.71773,-2.21427 9.87907,-3.85562 0.43356,2.33815 0.15485,6.5654 -2.35364,10.01843 10.12683,-2.89559 7.23124,-18.45746 6.8751,-19.66524 -13.78116,-2.52397 -20.65625,-4.72276 -24.66672,-6.28669 z"
       style="fill:#cccccc;fill-opacity:1;fill-rule:nonzero;stroke:none;stroke-width:0.193557"
       inkscape:connector-curvature="0" />
    <path
       id="path5456"
       d="m 113.10525,138.97341 c -0.82067,8.57838 -11.08686,13.78116 -11.84559,13.47147 13.09984,6.48798 23.76862,-5.68279 25.88999,-7.29318 -0.18582,5.10987 -2.55494,6.79767 -4.33564,8.25321 5.58988,0 8.71773,-2.21427 9.87907,-3.85562 0.43356,2.33815 0.15485,6.5654 -2.35364,10.01843 10.12683,-2.89559 7.23124,-18.45746 6.8751,-19.66524 -13.78116,-2.52397 -20.65625,-4.72276 -24.66672,-6.28669"
       style="fill:none;stroke:#333333;stroke-width:0.201298px;stroke-linecap:butt;stroke-linejoin:miter;stroke-miterlimit:4;stroke-dasharray:none;stroke-opacity:1"
       inkscape:connector-curvature="0" />
    <path
       id="path5458"
       d="m 109.41996,155.12369 c -0.37163,-1.13037 -0.85164,-1.92008 -1.51747,-2.36912 -1.87362,0.86713 -2.75624,2.12136 -2.97302,3.85562 1.16134,2.52397 4.2737,3.59239 4.47501,2.32267 -0.23227,-2.67881 -0.8052,-4.02596 -1.98201,-4.05693 -0.41808,0.3097 -0.78971,0.51099 -1.25424,1.502 z"
       style="fill:#cccccc;fill-opacity:1;fill-rule:nonzero;stroke:none;stroke-width:0.193557"
       inkscape:connector-curvature="0" />
    <path
       id="path5460"
       d="m 109.41996,155.12369 c -0.37163,-1.13037 -0.85164,-1.92008 -1.51747,-2.36912 -1.87362,0.86713 -2.75624,2.12136 -2.97302,3.85562 1.16134,2.52397 4.2737,3.59239 4.47501,2.32267 -0.23227,-2.67881 -0.8052,-4.02596 -1.98201,-4.05693 -0.41808,0.3097 -0.78971,0.51099 -1.25424,1.502"
       style="fill:none;stroke:#333333;stroke-width:0.201298px;stroke-linecap:butt;stroke-linejoin:miter;stroke-miterlimit:4;stroke-dasharray:none;stroke-opacity:1"
       inkscape:connector-curvature="0" />
    <path
       id="path5462"
       d="m 122.56625,151.98034 -0.82067,0.83616 -4.93954,-4.78469 0.57292,-0.41808 z"
       style="fill:#000000;fill-opacity:1;fill-rule:nonzero;stroke:#000000;stroke-width:0.201298px;stroke-linecap:butt;stroke-linejoin:miter;stroke-miterlimit:4;stroke-dasharray:none;stroke-opacity:1"
       inkscape:connector-curvature="0" />
    <path
       id="path5464"
       d="m 125.09021,151.34548 6.65831,-2.18331 0.20131,0.52648 -6.54993,2.35363 z"
       style="fill:#000000;fill-opacity:1;fill-rule:nonzero;stroke:#000000;stroke-width:0.201298px;stroke-linecap:butt;stroke-linejoin:miter;stroke-miterlimit:4;stroke-dasharray:none;stroke-opacity:1"
       inkscape:connector-curvature="0" />
  </g>
</svg>
